<svg xmlns="http://www.w3.org/2000/svg" xmlns:xlink="http://www.w3.org/1999/xlink" width="1366" zoomAndPan="magnify" viewBox="0 0 1024.5 576" height="768" preserveAspectRatio="xMidYMid meet" version="1.0"><defs><filter x="0%" y="0%" width="100%" height="100%" id="6afc0fa3d8"><feColorMatrix values="0 0 0 0 1 0 0 0 0 1 0 0 0 0 1 0 0 0 1 0" color-interpolation-filters="sRGB"/></filter><clipPath id="2aa6d7c807"><path d="M 0 0.140625 L 1024 0.140625 L 1024 575.859375 L 0 575.859375 Z M 0 0.140625 " clip-rule="nonzero"/></clipPath><mask id="bbdf5f1a4c"><g filter="url(#6afc0fa3d8)"><rect x="-102.45" width="1229.4" fill="#000000" y="-57.6" height="691.2" fill-opacity="0.38"/></g></mask><clipPath id="608abd887c"><path d="M 1 1 L 22 1 L 22 22.238281 L 1 22.238281 Z M 1 1 " clip-rule="nonzero"/></clipPath><clipPath id="e58b3535f8"><rect x="0" width="23" y="0" height="23"/></clipPath><clipPath id="8e6237ac0d"><path d="M 565 398 L 690 398 L 690 441.296875 L 565 441.296875 Z M 565 398 " clip-rule="nonzero"/></clipPath><mask id="fe29c4fc7b"><g filter="url(#6afc0fa3d8)"><rect x="-102.45" width="1229.4" fill="#000000" y="-57.6" height="691.2" fill-opacity="0.56"/></g></mask><clipPath id="28b14724c2"><rect x="0" width="116" y="0" height="101"/></clipPath><mask id="2d1bee9d40"><g filter="url(#6afc0fa3d8)"><rect x="-102.45" width="1229.4" fill="#000000" y="-57.6" height="691.2" fill-opacity="0.38"/></g></mask><clipPath id="1301b5b728"><path d="M 1 0.46875 L 20 0.46875 L 20 16 L 1 16 Z M 1 0.46875 " clip-rule="nonzero"/></clipPath><clipPath id="e4da511977"><rect x="0" width="21" y="0" height="17"/></clipPath><mask id="b6d75a0b3b"><g filter="url(#6afc0fa3d8)"><rect x="-102.45" width="1229.4" fill="#000000" y="-57.6" height="691.2" fill-opacity="0.43"/></g></mask><clipPath id="f1cd9e8f50"><path d="M 0.0898438 1 L 12 1 L 12 7 L 0.0898438 7 Z M 0.0898438 1 " clip-rule="nonzero"/></clipPath><clipPath id="2ff4dfc0d2"><rect x="0" width="13" y="0" height="8"/></clipPath><clipPath id="f3b16c82df"><path d="M 312 431 L 476 431 L 476 441.296875 L 312 441.296875 Z M 312 431 " clip-rule="nonzero"/></clipPath><clipPath id="8001f5e066"><path d="M 312 430 L 477 430 L 477 441.296875 L 312 441.296875 Z M 312 430 " clip-rule="nonzero"/></clipPath><mask id="ab6efedd47"><g filter="url(#6afc0fa3d8)"><rect x="-102.45" width="1229.4" fill="#000000" y="-57.6" height="691.2" fill-opacity="0.56"/></g></mask><clipPath id="3914aef833"><path d="M 0.566406 1 L 164 1 L 164 11.296875 L 0.566406 11.296875 Z M 0.566406 1 " clip-rule="nonzero"/></clipPath><clipPath id="7fb8b50f6a"><rect x="0" width="165" y="0" height="12"/></clipPath><clipPath id="07bd68dd39"><path d="M 389 430 L 400 430 L 400 441.296875 L 389 441.296875 Z M 389 430 " clip-rule="nonzero"/></clipPath><mask id="5ccf36885c"><g filter="url(#6afc0fa3d8)"><rect x="-102.45" width="1229.4" fill="#000000" y="-57.6" height="691.2" fill-opacity="0.31"/></g></mask><clipPath id="f4ef51f5dc"><path d="M 0.0898438 1 L 10.644531 1 L 10.644531 11.296875 L 0.0898438 11.296875 Z M 0.0898438 1 " clip-rule="nonzero"/></clipPath><clipPath id="4061002155"><rect x="0" width="11" y="0" height="12"/></clipPath></defs><g clip-path="url(#2aa6d7c807)"><path fill="#daf6f9" d="M 0 0.140625 L 1024 0.140625 L 1024 575.859375 L 0 575.859375 Z M 0 0.140625 " fill-opacity="1" fill-rule="nonzero"/><path fill="#daf6f9" d="M 0 0.140625 L 1024 0.140625 L 1024 575.859375 L 0 575.859375 Z M 0 0.140625 " fill-opacity="1" fill-rule="nonzero"/></g><path fill="#0d4fb1" d="M 475.148438 398.992188 L 461.964844 371.945312 C 453.960938 355.492188 439.648438 343.097656 422.183594 337.574219 L 415.308594 335.433594 L 370.570312 336.449219 L 359.523438 339.828125 C 346 343.996094 334.507812 353.011719 327.40625 365.183594 L 303.742188 405.304688 C 301.261719 409.585938 300.472656 414.65625 301.710938 419.390625 C 303.964844 427.953125 311.742188 433.816406 320.53125 433.589844 C 345.4375 433.027344 392.65625 432.011719 393.332031 431.222656 C 394.121094 430.433594 440.890625 430.886719 461.398438 431.109375 C 467.148438 431.222656 472.445312 427.953125 474.921875 422.769531 C 478.753906 415.332031 478.753906 406.542969 475.148438 398.992188 Z M 334.054688 404.964844 L 352.425781 381.976562 L 363.695312 411.277344 Z M 423.421875 411.277344 L 434.464844 379.949219 L 449.230469 403.726562 Z M 423.421875 411.277344 " fill-opacity="1" fill-rule="nonzero"/><path fill="#000000" d="M 432.550781 299.710938 C 432.550781 300.324219 432.519531 300.941406 432.460938 301.554688 C 432.398438 302.167969 432.308594 302.777344 432.1875 303.382812 C 432.070312 303.984375 431.917969 304.582031 431.738281 305.171875 C 431.5625 305.761719 431.355469 306.34375 431.117188 306.910156 C 430.882812 307.480469 430.617188 308.039062 430.328125 308.582031 C 430.039062 309.125 429.722656 309.652344 429.378906 310.164062 C 429.035156 310.675781 428.667969 311.171875 428.277344 311.648438 C 427.886719 312.125 427.472656 312.582031 427.039062 313.015625 C 426.601562 313.453125 426.144531 313.867188 425.667969 314.257812 C 425.191406 314.648438 424.699219 315.015625 424.1875 315.359375 C 423.671875 315.699219 423.144531 316.015625 422.601562 316.308594 C 422.058594 316.597656 421.5 316.859375 420.933594 317.097656 C 420.363281 317.332031 419.785156 317.539062 419.195312 317.71875 C 418.605469 317.898438 418.007812 318.046875 417.402344 318.167969 C 416.796875 318.289062 416.1875 318.378906 415.574219 318.4375 C 414.960938 318.5 414.347656 318.527344 413.730469 318.527344 C 413.113281 318.527344 412.5 318.5 411.886719 318.4375 C 411.273438 318.378906 410.664062 318.289062 410.058594 318.167969 C 409.453125 318.046875 408.855469 317.898438 408.265625 317.71875 C 407.675781 317.539062 407.097656 317.332031 406.527344 317.097656 C 405.957031 316.859375 405.402344 316.597656 404.859375 316.308594 C 404.316406 316.015625 403.789062 315.699219 403.273438 315.359375 C 402.761719 315.015625 402.269531 314.648438 401.792969 314.257812 C 401.316406 313.867188 400.859375 313.453125 400.421875 313.015625 C 399.988281 312.582031 399.574219 312.125 399.183594 311.648438 C 398.792969 311.171875 398.425781 310.675781 398.082031 310.164062 C 397.738281 309.652344 397.421875 309.125 397.132812 308.582031 C 396.84375 308.039062 396.578125 307.480469 396.34375 306.910156 C 396.105469 306.34375 395.898438 305.761719 395.722656 305.171875 C 395.542969 304.582031 395.390625 303.984375 395.273438 303.382812 C 395.152344 302.777344 395.0625 302.167969 395 301.554688 C 394.941406 300.941406 394.910156 300.324219 394.910156 299.710938 C 394.910156 299.09375 394.941406 298.476562 395 297.863281 C 395.0625 297.25 395.152344 296.640625 395.273438 296.039062 C 395.390625 295.433594 395.542969 294.835938 395.722656 294.246094 C 395.898438 293.65625 396.105469 293.078125 396.34375 292.507812 C 396.578125 291.9375 396.84375 291.382812 397.132812 290.835938 C 397.421875 290.292969 397.738281 289.765625 398.082031 289.253906 C 398.425781 288.742188 398.792969 288.246094 399.183594 287.769531 C 399.574219 287.292969 399.988281 286.835938 400.421875 286.402344 C 400.859375 285.964844 401.316406 285.550781 401.792969 285.160156 C 402.269531 284.769531 402.761719 284.402344 403.273438 284.0625 C 403.789062 283.71875 404.316406 283.402344 404.859375 283.113281 C 405.402344 282.820312 405.957031 282.558594 406.527344 282.320312 C 407.097656 282.085938 407.675781 281.878906 408.265625 281.699219 C 408.855469 281.519531 409.453125 281.371094 410.058594 281.25 C 410.664062 281.128906 411.273438 281.039062 411.886719 280.980469 C 412.5 280.917969 413.113281 280.890625 413.730469 280.890625 C 414.347656 280.890625 414.960938 280.917969 415.574219 280.980469 C 416.1875 281.039062 416.796875 281.128906 417.402344 281.25 C 418.007812 281.371094 418.605469 281.519531 419.195312 281.699219 C 419.785156 281.878906 420.363281 282.085938 420.933594 282.320312 C 421.5 282.558594 422.058594 282.820312 422.601562 283.113281 C 423.144531 283.402344 423.671875 283.71875 424.1875 284.0625 C 424.699219 284.402344 425.191406 284.769531 425.667969 285.160156 C 426.144531 285.550781 426.601562 285.964844 427.039062 286.402344 C 427.472656 286.835938 427.886719 287.292969 428.277344 287.769531 C 428.667969 288.246094 429.035156 288.742188 429.378906 289.253906 C 429.722656 289.765625 430.039062 290.292969 430.328125 290.835938 C 430.617188 291.382812 430.882812 291.9375 431.117188 292.507812 C 431.355469 293.078125 431.5625 293.65625 431.738281 294.246094 C 431.917969 294.835938 432.070312 295.433594 432.1875 296.039062 C 432.308594 296.640625 432.398438 297.25 432.460938 297.863281 C 432.519531 298.476562 432.550781 299.09375 432.550781 299.710938 Z M 432.550781 299.710938 " fill-opacity="1" fill-rule="nonzero"/><path fill="#000000" d="M 419.234375 265.421875 C 419.40625 266.421875 419.53125 267.425781 419.601562 268.4375 C 419.675781 269.453125 419.695312 270.464844 419.667969 271.480469 C 419.636719 272.496094 419.558594 273.507812 419.425781 274.519531 C 419.292969 275.527344 419.113281 276.527344 418.878906 277.519531 C 418.648438 278.511719 418.367188 279.488281 418.039062 280.457031 C 417.707031 281.421875 417.328125 282.371094 416.90625 283.300781 C 416.480469 284.230469 416.007812 285.140625 415.492188 286.023438 C 414.976562 286.910156 414.417969 287.769531 413.816406 288.605469 C 413.210938 289.4375 412.570312 290.238281 411.886719 291.011719 C 411.207031 291.785156 410.484375 292.523438 409.730469 293.226562 C 408.972656 293.929688 408.183594 294.59375 407.363281 295.222656 C 406.539062 295.851562 405.6875 296.441406 404.808594 296.988281 C 403.925781 297.535156 403.019531 298.039062 402.089844 298.5 C 401.160156 298.960938 400.207031 299.375 399.234375 299.746094 C 398.261719 300.117188 397.277344 300.4375 396.273438 300.714844 C 395.269531 300.988281 394.253906 301.214844 393.230469 301.394531 C 392.203125 301.574219 391.171875 301.699219 390.132812 301.78125 C 389.097656 301.859375 388.058594 301.890625 387.019531 301.867188 C 385.980469 301.847656 384.941406 301.777344 383.910156 301.660156 C 382.878906 301.539062 381.855469 301.371094 380.84375 301.152344 C 379.828125 300.933594 378.828125 300.667969 377.84375 300.355469 C 376.855469 300.039062 375.890625 299.679688 374.941406 299.269531 C 373.992188 298.863281 373.0625 298.410156 372.160156 297.914062 C 371.257812 297.417969 370.382812 296.878906 369.535156 296.296875 C 368.6875 295.71875 367.871094 295.097656 367.085938 294.4375 C 366.300781 293.777344 365.550781 293.082031 364.835938 292.347656 C 364.121094 291.617188 363.449219 290.851562 362.8125 290.050781 C 362.175781 289.253906 361.578125 288.429688 361.027344 287.570312 C 360.472656 286.714844 359.964844 285.835938 359.5 284.929688 C 359.035156 284.027344 358.621094 283.101562 358.25 282.152344 C 357.878906 281.207031 357.558594 280.246094 357.285156 279.269531 C 357.011719 278.289062 356.785156 277.300781 356.613281 276.300781 C 356.4375 275.300781 356.316406 274.296875 356.242188 273.28125 C 356.171875 272.269531 356.148438 271.257812 356.179688 270.242188 C 356.207031 269.226562 356.289062 268.210938 356.421875 267.203125 C 356.550781 266.195312 356.734375 265.195312 356.964844 264.203125 C 357.199219 263.210938 357.476562 262.230469 357.808594 261.265625 C 358.140625 260.300781 358.515625 259.351562 358.941406 258.421875 C 359.367188 257.492188 359.835938 256.582031 360.355469 255.695312 C 360.871094 254.8125 361.429688 253.949219 362.03125 253.117188 C 362.632812 252.285156 363.277344 251.480469 363.957031 250.710938 C 364.640625 249.9375 365.359375 249.199219 366.117188 248.496094 C 366.871094 247.792969 367.660156 247.125 368.484375 246.496094 C 369.304688 245.871094 370.15625 245.28125 371.039062 244.734375 C 371.921875 244.1875 372.824219 243.683594 373.757812 243.222656 C 374.6875 242.761719 375.640625 242.34375 376.609375 241.976562 C 377.582031 241.605469 378.570312 241.285156 379.574219 241.007812 C 380.578125 240.734375 381.589844 240.503906 382.617188 240.328125 C 383.644531 240.148438 384.675781 240.019531 385.710938 239.941406 C 386.75 239.863281 387.789062 239.832031 388.828125 239.851562 C 389.867188 239.875 390.902344 239.941406 391.933594 240.0625 C 392.964844 240.183594 393.988281 240.351562 395.003906 240.570312 C 396.015625 240.789062 397.015625 241.054688 398.003906 241.367188 C 398.988281 241.683594 399.957031 242.042969 400.90625 242.449219 C 401.855469 242.859375 402.78125 243.308594 403.683594 243.808594 C 404.585938 244.304688 405.464844 244.84375 406.3125 245.421875 C 407.160156 246.003906 407.976562 246.625 408.761719 247.285156 C 409.546875 247.945312 410.292969 248.640625 411.007812 249.375 C 411.722656 250.105469 412.398438 250.871094 413.035156 251.667969 C 413.671875 252.46875 414.265625 253.292969 414.820312 254.148438 C 415.371094 255.003906 415.882812 255.886719 416.34375 256.789062 C 416.808594 257.695312 417.226562 258.621094 417.597656 259.566406 C 417.96875 260.515625 418.289062 261.476562 418.5625 262.453125 C 418.835938 263.429688 419.058594 264.421875 419.234375 265.421875 Z M 419.234375 265.421875 " fill-opacity="1" fill-rule="nonzero"/><path fill="#35a0cd" d="M 688.367188 239.304688 C 688.367188 239.304688 711.242188 239.53125 714.734375 273.902344 C 718.230469 308.273438 720.707031 358.421875 720.707031 358.421875 L 690.730469 361.015625 L 677.207031 273.789062 Z M 688.367188 239.304688 " fill-opacity="1" fill-rule="nonzero"/><path fill="#db7157" d="M 515.378906 367.214844 C 508.167969 363.71875 504.898438 355.15625 507.828125 347.71875 L 533.296875 283.707031 C 537.242188 273.5625 543.101562 269.054688 551.894531 270.746094 C 560.234375 272.4375 566.769531 280.664062 565.304688 289.003906 L 536.339844 359.210938 C 532.960938 367.550781 523.382812 371.15625 515.378906 367.214844 Z M 515.378906 367.214844 " fill-opacity="1" fill-rule="nonzero"/><path fill="#35a0cd" d="M 572.742188 236.261719 C 572.742188 236.261719 553.246094 234.796875 539.046875 265.789062 C 524.734375 297.117188 518.308594 317.964844 518.308594 317.964844 L 538.820312 353.238281 L 580.179688 276.605469 Z M 572.742188 236.261719 " fill-opacity="1" fill-rule="nonzero"/><path fill="#db7157" d="M 474.023438 245.054688 L 458.921875 250.6875 L 503.320312 351.324219 C 506.589844 362.367188 514.480469 372.507812 524.507812 366.875 C 532.847656 362.140625 536.117188 351.773438 531.722656 343.210938 Z M 474.023438 245.054688 " fill-opacity="1" fill-rule="nonzero"/><path fill="#db7157" d="M 473.570312 241.785156 L 472.558594 237.839844 C 471.203125 232.542969 468.613281 227.699219 465.007812 223.640625 L 458.695312 216.429688 C 457.230469 214.738281 454.527344 214.738281 453.0625 216.542969 C 451.820312 218.007812 451.707031 220.148438 452.609375 221.835938 L 457.570312 230.742188 L 427.589844 212.597656 C 426.125 211.695312 424.210938 212.257812 423.535156 213.722656 L 423.085938 214.738281 C 422.519531 215.976562 422.859375 217.441406 423.984375 218.230469 L 443.707031 231.191406 L 419.027344 219.472656 C 417.5625 218.683594 415.644531 219.359375 414.96875 220.9375 L 414.632812 221.726562 C 414.070312 223.078125 414.632812 224.542969 415.871094 225.332031 L 437.171875 236.9375 L 419.140625 231.640625 C 417.449219 231.078125 415.644531 232.316406 415.421875 234.121094 L 415.421875 234.460938 C 415.308594 235.699219 415.984375 236.824219 417.109375 237.390625 L 435.480469 244.152344 L 425.226562 242.800781 C 423.195312 242.234375 421.28125 244.039062 421.617188 246.066406 C 421.84375 247.082031 422.519531 247.871094 423.421875 248.207031 L 469.964844 264.660156 L 473.34375 253.957031 C 474.472656 250.011719 474.585938 245.839844 473.570312 241.785156 Z M 473.570312 241.785156 " fill-opacity="1" fill-rule="nonzero"/><path fill="#000000" d="M 460.160156 246.742188 C 460.046875 246.742188 459.933594 246.742188 459.820312 246.628906 C 454.414062 238.292969 457.117188 230.742188 457.230469 230.628906 C 457.34375 230.402344 457.457031 230.402344 457.679688 230.402344 C 457.90625 230.515625 457.90625 230.628906 457.90625 230.851562 C 457.90625 230.964844 455.316406 238.179688 460.5 246.292969 C 460.609375 246.40625 460.609375 246.628906 460.386719 246.742188 C 460.273438 246.742188 460.273438 246.742188 460.160156 246.742188 Z M 460.160156 246.742188 " fill-opacity="1" fill-rule="nonzero"/><path fill="#35a0cd" d="M 692.195312 239.757812 L 627.285156 216.316406 L 562.375 239.980469 C 558.992188 241.222656 557.300781 244.828125 558.429688 248.207031 C 565.640625 269.621094 580.179688 366.761719 578.261719 400.34375 L 677.207031 400.34375 C 679.125 366.875 689.15625 269.394531 696.253906 247.984375 C 697.269531 244.601562 695.578125 240.996094 692.195312 239.757812 Z M 692.195312 239.757812 " fill-opacity="1" fill-rule="nonzero"/><path fill="#db7157" d="M 572.742188 236.261719 C 572.742188 236.261719 583.898438 254.855469 626.160156 254.855469 C 668.417969 254.855469 681.378906 235.925781 681.378906 235.925781 L 627.285156 216.429688 Z M 572.742188 236.261719 " fill-opacity="1" fill-rule="nonzero"/><path fill="#000000" d="M 680.703125 300.949219 C 680.589844 300.949219 680.589844 300.949219 680.476562 300.949219 C 680.027344 300.835938 679.800781 300.386719 679.914062 299.933594 L 687.125 273.789062 C 687.238281 273.339844 687.6875 273.113281 688.140625 273.226562 C 688.589844 273.339844 688.816406 273.789062 688.703125 274.242188 L 681.492188 300.386719 C 681.378906 300.722656 681.039062 300.949219 680.703125 300.949219 Z M 680.703125 300.949219 " fill-opacity="1" fill-rule="nonzero"/><path fill="#000000" d="M 572.066406 292.609375 C 571.726562 292.609375 571.390625 292.382812 571.277344 292.046875 L 566.316406 275.816406 C 566.207031 275.367188 566.429688 274.917969 566.882812 274.804688 C 567.332031 274.691406 567.78125 274.917969 567.894531 275.367188 L 572.855469 291.59375 C 572.96875 292.046875 572.742188 292.496094 572.289062 292.609375 C 572.179688 292.496094 572.179688 292.609375 572.066406 292.609375 Z M 572.066406 292.609375 " fill-opacity="1" fill-rule="nonzero"/><path fill="#000000" d="M 659.964844 142.953125 C 661.882812 163.914062 643.964844 182.621094 622.441406 184.535156 C 600.914062 186.453125 581.984375 171.011719 580.179688 150.164062 C 578.261719 129.203125 594.265625 110.722656 615.679688 108.804688 C 637.203125 106.777344 658.164062 121.992188 659.964844 142.953125 Z M 659.964844 142.953125 " fill-opacity="1" fill-rule="nonzero"/><path fill="#000000" d="M 659.289062 138.558594 C 659.289062 138.558594 661.769531 151.515625 666.390625 158.277344 C 673.378906 168.421875 680.476562 180.816406 679.6875 193.328125 L 575.332031 205.609375 C 575.332031 205.609375 572.855469 185.550781 581.644531 175.859375 C 590.433594 166.28125 581.757812 144.53125 581.757812 144.53125 Z M 659.289062 138.558594 " fill-opacity="1" fill-rule="nonzero"/><path fill="#db7157" d="M 608.128906 192.3125 L 609.140625 231.078125 L 643.289062 226.007812 L 637.316406 167.40625 Z M 608.128906 192.3125 " fill-opacity="1" fill-rule="nonzero"/><g mask="url(#bbdf5f1a4c)"><g transform="matrix(1, 0, 0, 1, 607, 189)"><g clip-path="url(#e58b3535f8)"><g clip-path="url(#608abd887c)"><path fill="#000000" d="M 1.578125 22.019531 C 1.578125 22.019531 19.609375 22.355469 21.300781 1.058594 L 1.238281 9.847656 Z M 1.578125 22.019531 " fill-opacity="1" fill-rule="nonzero"/></g></g></g></g><path fill="#db7157" d="M 584.6875 131.007812 C 582.09375 133.597656 580.628906 136.980469 580.292969 140.585938 C 579.164062 151.179688 576.796875 171.800781 581.53125 182.621094 C 587.617188 196.59375 600.125 204.707031 618.832031 199.410156 C 618.832031 199.410156 641.371094 193.664062 643.402344 165.265625 C 646.554688 118.835938 606.550781 109.03125 584.6875 131.007812 Z M 584.6875 131.007812 " fill-opacity="1" fill-rule="nonzero"/><path fill="#000000" d="M 586.039062 164.816406 C 585.925781 166.167969 584.800781 167.292969 583.335938 167.179688 C 581.984375 167.070312 580.855469 165.941406 580.96875 164.476562 C 581.082031 163.125 582.207031 161.996094 583.671875 162.109375 C 585.136719 162.222656 586.152344 163.351562 586.039062 164.816406 Z M 586.039062 164.816406 " fill-opacity="1" fill-rule="nonzero"/><path fill="#000000" d="M 607 160.984375 C 606.886719 162.335938 605.761719 163.460938 604.296875 163.351562 C 602.832031 163.238281 601.816406 162.109375 601.929688 160.644531 C 602.042969 159.292969 603.167969 158.164062 604.632812 158.277344 C 605.984375 158.503906 607 159.628906 607 160.984375 Z M 607 160.984375 " fill-opacity="1" fill-rule="nonzero"/><path fill="#000000" d="M 594.152344 175.746094 C 594.039062 175.746094 594.039062 175.746094 593.929688 175.746094 L 589.757812 175.519531 C 589.53125 175.519531 589.308594 175.40625 589.195312 175.183594 C 589.082031 174.957031 588.96875 174.84375 589.082031 174.617188 L 590.320312 168.308594 C 590.433594 167.855469 590.773438 167.632812 591.222656 167.746094 C 591.675781 167.855469 591.898438 168.195312 591.785156 168.644531 L 590.660156 174.167969 L 593.929688 174.394531 C 594.378906 174.394531 594.71875 174.730469 594.605469 175.183594 C 594.71875 175.40625 594.492188 175.632812 594.152344 175.746094 Z M 594.152344 175.746094 " fill-opacity="1" fill-rule="nonzero"/><path fill="#000000" d="M 596.859375 151.402344 C 597.082031 153.09375 598.773438 154.222656 600.464844 153.882812 C 603.054688 153.320312 606.773438 152.644531 610.492188 152.980469 C 611.847656 153.09375 613.085938 152.191406 613.3125 150.726562 C 613.425781 149.375 612.523438 148.363281 611.28125 147.910156 C 608.691406 147.121094 604.632812 145.882812 598.886719 148.25 C 597.535156 148.8125 596.632812 150.050781 596.859375 151.402344 Z M 596.859375 151.402344 " fill-opacity="1" fill-rule="nonzero"/><path fill="#000000" d="M 586.488281 153.546875 C 586.601562 155.234375 585.8125 156.8125 584.6875 157.039062 C 582.996094 157.265625 580.40625 157.941406 578.152344 159.40625 C 577.25 159.96875 576.347656 159.40625 576.007812 158.277344 C 575.671875 157.152344 576.121094 155.800781 576.796875 155.011719 C 578.261719 153.433594 580.628906 151.066406 584.6875 151.292969 C 585.589844 151.292969 586.265625 152.191406 586.488281 153.546875 Z M 586.488281 153.546875 " fill-opacity="1" fill-rule="nonzero"/><path fill="#daf6f9" d="M 592.6875 181.378906 L 606.210938 176.984375 C 606.210938 176.984375 608.238281 182.507812 601.476562 184.648438 C 594.828125 186.789062 592.6875 181.378906 592.6875 181.378906 Z M 592.6875 181.378906 " fill-opacity="1" fill-rule="nonzero"/><path fill="#000000" d="M 636.75 166.390625 C 636.75 166.390625 618.945312 156.925781 625.707031 135.289062 C 625.707031 135.289062 649.484375 140.132812 645.992188 143.402344 C 642.5 146.671875 636.75 166.390625 636.75 166.390625 Z M 636.75 166.390625 " fill-opacity="1" fill-rule="nonzero"/><path fill="#000000" d="M 631.117188 141.148438 C 631.117188 141.148438 611.058594 144.304688 574.09375 146.332031 C 574.09375 146.332031 573.417969 116.132812 609.027344 109.820312 C 642.046875 103.960938 654.894531 132.472656 649.375 158.617188 L 635.285156 163.6875 Z M 631.117188 141.148438 " fill-opacity="1" fill-rule="nonzero"/><path fill="#db7157" d="M 656.023438 165.828125 C 656.023438 166.648438 655.941406 167.464844 655.78125 168.269531 C 655.621094 169.074219 655.382812 169.855469 655.070312 170.617188 C 654.753906 171.375 654.371094 172.09375 653.914062 172.777344 C 653.457031 173.460938 652.9375 174.09375 652.359375 174.675781 C 651.777344 175.253906 651.144531 175.773438 650.464844 176.230469 C 649.78125 176.6875 649.058594 177.070312 648.300781 177.386719 C 647.542969 177.699219 646.757812 177.9375 645.953125 178.097656 C 645.148438 178.257812 644.335938 178.339844 643.511719 178.339844 C 642.691406 178.339844 641.878906 178.257812 641.074219 178.097656 C 640.265625 177.9375 639.484375 177.699219 638.726562 177.386719 C 637.96875 177.070312 637.246094 176.6875 636.5625 176.230469 C 635.878906 175.773438 635.25 175.253906 634.667969 174.675781 C 634.085938 174.09375 633.570312 173.460938 633.113281 172.777344 C 632.65625 172.09375 632.269531 171.375 631.957031 170.617188 C 631.640625 169.855469 631.40625 169.074219 631.246094 168.269531 C 631.085938 167.464844 631.003906 166.648438 631.003906 165.828125 C 631.003906 165.007812 631.085938 164.195312 631.246094 163.386719 C 631.40625 162.582031 631.640625 161.800781 631.957031 161.042969 C 632.269531 160.28125 632.65625 159.5625 633.113281 158.878906 C 633.570312 158.195312 634.085938 157.566406 634.667969 156.984375 C 635.25 156.402344 635.878906 155.882812 636.5625 155.429688 C 637.246094 154.972656 637.96875 154.585938 638.726562 154.273438 C 639.484375 153.957031 640.265625 153.71875 641.074219 153.558594 C 641.878906 153.398438 642.691406 153.320312 643.511719 153.320312 C 644.335938 153.320312 645.148438 153.398438 645.953125 153.558594 C 646.757812 153.71875 647.542969 153.957031 648.300781 154.273438 C 649.058594 154.585938 649.78125 154.972656 650.464844 155.429688 C 651.144531 155.882812 651.777344 156.402344 652.359375 156.984375 C 652.9375 157.566406 653.457031 158.195312 653.914062 158.878906 C 654.371094 159.5625 654.753906 160.28125 655.070312 161.042969 C 655.382812 161.800781 655.621094 162.582031 655.78125 163.386719 C 655.941406 164.195312 656.023438 165.007812 656.023438 165.828125 Z M 656.023438 165.828125 " fill-opacity="1" fill-rule="nonzero"/><path fill="#000000" d="M 637.878906 170.898438 L 637.765625 170.898438 C 637.429688 170.789062 637.089844 170.449219 637.203125 170.109375 C 637.652344 166.730469 639.117188 164.25 641.257812 162.671875 C 644.640625 160.308594 648.699219 160.984375 648.921875 161.097656 C 649.261719 161.207031 649.597656 161.546875 649.484375 161.882812 C 649.375 162.222656 649.035156 162.5625 648.695312 162.449219 C 648.695312 162.449219 644.976562 161.773438 642.160156 163.800781 C 640.246094 165.152344 639.117188 167.292969 638.667969 170.335938 C 638.554688 170.5625 638.214844 170.789062 637.878906 170.898438 Z M 637.878906 170.898438 " fill-opacity="1" fill-rule="nonzero"/><g clip-path="url(#8e6237ac0d)"><path fill="#0d4fb1" d="M 578.261719 398.089844 L 565.527344 441.367188 L 689.832031 441.367188 L 676.984375 398.089844 Z M 578.261719 398.089844 " fill-opacity="1" fill-rule="nonzero"/></g><path fill="#daf6f9" d="M 634.386719 236.714844 C 632.355469 233.671875 629.089844 231.304688 625.480469 230.515625 C 621.425781 229.613281 617.253906 230.402344 613.199219 231.191406 C 608.015625 232.207031 602.832031 233.21875 597.648438 234.347656 C 594.152344 235.023438 590.546875 235.8125 587.277344 237.503906 C 584.125 239.191406 581.304688 242.011719 580.628906 245.390625 C 578.941406 242.347656 575.558594 240.546875 572.066406 239.867188 C 568.570312 239.304688 564.964844 239.644531 561.472656 240.09375 C 557.191406 240.65625 552.90625 241.109375 548.625 241.671875 C 545.582031 242.011719 541.863281 242.800781 540.847656 245.730469 C 541.527344 246.179688 542.3125 246.40625 542.992188 246.855469 C 546.371094 249.222656 549.753906 251.476562 553.695312 252.828125 C 557.753906 254.179688 562.035156 254.40625 566.316406 254.292969 C 576.460938 254.179688 586.601562 252.492188 596.632812 250.574219 C 609.929688 248.09375 624.582031 245.839844 634.386719 236.714844 Z M 634.386719 236.714844 " fill-opacity="1" fill-rule="nonzero"/><path fill="#35a0cd" d="M 537.242188 243.136719 L 575.109375 247.644531 L 586.265625 245.839844 L 639.117188 226.796875 L 651.402344 303.203125 L 598.546875 322.8125 L 586.601562 324.726562 L 549.527344 319.769531 Z M 537.242188 243.136719 " fill-opacity="1" fill-rule="nonzero"/><g mask="url(#fe29c4fc7b)"><g transform="matrix(1, 0, 0, 1, 536, 225)"><g clip-path="url(#28b14724c2)"><path fill="#db7157" d="M 1.242188 18.136719 L 39.109375 22.644531 L 50.265625 20.839844 L 103.117188 1.796875 L 115.402344 78.203125 L 62.546875 97.8125 L 50.601562 99.726562 L 13.527344 94.769531 Z M 1.242188 18.136719 " fill-opacity="1" fill-rule="nonzero"/></g></g></g><path fill="#0d4fb1" d="M 575.101562 247.675781 L 586.226562 245.890625 L 598.550781 322.78125 L 587.421875 324.566406 Z M 575.101562 247.675781 " fill-opacity="1" fill-rule="nonzero"/><path fill="#db7157" d="M 720.707031 358.421875 L 628.1875 317.289062 L 616.46875 329.121094 L 687.914062 390.878906 C 701.890625 402.9375 723.527344 391.894531 721.949219 373.523438 Z M 720.707031 358.421875 " fill-opacity="1" fill-rule="nonzero"/><path fill="#db7157" d="M 622.890625 279.988281 L 633.257812 296.777344 L 637.089844 294.863281 C 638.441406 294.1875 640.246094 294.414062 641.257812 295.539062 C 642.386719 296.667969 642.5 298.46875 641.597656 299.710938 L 628.75 317.851562 L 616.355469 329.121094 C 607.339844 320.21875 607.113281 314.132812 608.464844 310.414062 C 608.238281 309.964844 608.128906 309.625 608.015625 309.175781 L 602.71875 294.976562 C 602.042969 293.625 602.492188 292.046875 603.84375 291.371094 C 604.746094 290.804688 606.324219 290.582031 608.015625 293.285156 L 606.324219 290.582031 C 605.648438 289.230469 606.097656 287.539062 607.5625 286.75 C 608.804688 286.074219 610.492188 286.75 611.734375 288.214844 L 610.71875 286.1875 C 609.929688 284.722656 610.605469 282.804688 612.296875 282.128906 C 613.761719 281.566406 615.453125 282.128906 616.242188 283.480469 L 618.042969 286.410156 L 616.917969 282.804688 C 616.242188 281.113281 617.03125 279.199219 618.832031 278.523438 C 620.296875 277.847656 621.988281 278.636719 622.890625 279.988281 Z M 622.890625 279.988281 " fill-opacity="1" fill-rule="nonzero"/><path fill="#000000" d="M 623.226562 296.328125 C 623.117188 296.328125 623.003906 296.214844 622.890625 296.101562 L 616.804688 285.621094 C 616.691406 285.398438 616.804688 285.171875 616.917969 285.171875 C 617.144531 285.058594 617.367188 285.171875 617.367188 285.285156 L 623.453125 295.765625 C 623.566406 295.992188 623.453125 296.214844 623.339844 296.214844 C 623.339844 296.328125 623.226562 296.328125 623.226562 296.328125 Z M 623.226562 296.328125 " fill-opacity="1" fill-rule="nonzero"/><path fill="#000000" d="M 616.917969 298.582031 C 616.804688 298.582031 616.691406 298.46875 616.578125 298.355469 L 611.621094 288.664062 C 611.507812 288.550781 611.621094 288.328125 611.734375 288.214844 C 611.847656 288.101562 612.070312 288.214844 612.183594 288.328125 L 617.144531 298.019531 C 617.253906 298.132812 617.144531 298.355469 617.03125 298.46875 C 617.03125 298.582031 617.03125 298.582031 616.917969 298.582031 Z M 616.917969 298.582031 " fill-opacity="1" fill-rule="nonzero"/><path fill="#000000" d="M 611.621094 300.835938 C 611.507812 300.835938 611.394531 300.722656 611.28125 300.609375 L 607.339844 292.382812 C 607.226562 292.160156 607.339844 292.046875 607.453125 291.933594 C 607.5625 291.820312 607.789062 291.933594 607.902344 292.046875 L 611.847656 300.273438 C 611.960938 300.5 611.847656 300.609375 611.734375 300.722656 C 611.734375 300.835938 611.621094 300.835938 611.621094 300.835938 Z M 611.621094 300.835938 " fill-opacity="1" fill-rule="nonzero"/><path fill="#db7157" d="M 415.757812 281.339844 C 415.757812 281.339844 419.929688 276.832031 424.097656 280.550781 C 430.523438 286.296875 423.421875 300.046875 414.292969 295.203125 Z M 415.757812 281.339844 " fill-opacity="1" fill-rule="nonzero"/><path fill="#000000" d="M 416.660156 290.917969 C 416.660156 290.917969 416.546875 290.917969 416.660156 290.917969 C 416.433594 290.804688 416.324219 290.695312 416.433594 290.582031 C 418.351562 284.382812 421.394531 284.609375 421.507812 284.609375 C 421.617188 284.609375 421.730469 284.722656 421.730469 284.945312 C 421.730469 285.058594 421.617188 285.171875 421.394531 285.171875 C 421.394531 285.171875 418.800781 284.945312 417 290.695312 C 416.886719 290.917969 416.773438 290.917969 416.660156 290.917969 Z M 416.660156 290.917969 " fill-opacity="1" fill-rule="nonzero"/><path fill="#db7157" d="M 366.171875 290.355469 C 366.171875 290.355469 359.976562 287.199219 357.269531 292.160156 C 353.101562 299.710938 364.484375 310.191406 371.46875 302.640625 Z M 366.171875 290.355469 " fill-opacity="1" fill-rule="nonzero"/><path fill="#000000" d="M 367.75 299.371094 C 367.636719 299.371094 367.636719 299.371094 367.527344 299.257812 C 363.808594 294.414062 361.441406 295.539062 361.441406 295.539062 C 361.328125 295.652344 361.101562 295.539062 361.101562 295.425781 C 360.988281 295.3125 361.101562 295.089844 361.214844 295.089844 C 361.328125 294.976562 363.917969 293.738281 367.976562 299.03125 C 368.089844 299.144531 368.089844 299.371094 367.976562 299.484375 C 367.863281 299.371094 367.863281 299.371094 367.75 299.371094 Z M 367.75 299.371094 " fill-opacity="1" fill-rule="nonzero"/><path fill="#db7157" d="M 384.878906 312.78125 L 382.738281 334.757812 L 403.363281 334.757812 L 400.433594 312.554688 Z M 384.878906 312.78125 " fill-opacity="1" fill-rule="nonzero"/><g mask="url(#2d1bee9d40)"><g transform="matrix(1, 0, 0, 1, 383, 312)"><g clip-path="url(#e4da511977)"><g clip-path="url(#1301b5b728)"><path fill="#000000" d="M 1.65625 3.035156 C 2.332031 3.375 19.460938 15.542969 19.460938 15.542969 L 17.433594 0.554688 Z M 1.65625 3.035156 " fill-opacity="1" fill-rule="nonzero"/></g></g></g></g><path fill="#db7157" d="M 362.117188 275.367188 C 362.117188 275.367188 368.652344 321.347656 396.601562 316.5 C 426.804688 311.203125 413.84375 266.351562 413.84375 266.351562 C 413.84375 266.351562 410.125 245.730469 384.203125 250.238281 C 360.3125 254.40625 362.117188 275.367188 362.117188 275.367188 Z M 362.117188 275.367188 " fill-opacity="1" fill-rule="nonzero"/><path fill="#000000" d="M 384.316406 285.511719 C 384.542969 286.75 383.753906 287.875 382.515625 288.101562 C 381.273438 288.328125 380.148438 287.539062 379.921875 286.296875 C 379.695312 285.058594 380.484375 283.933594 381.726562 283.707031 C 382.964844 283.480469 384.09375 284.269531 384.316406 285.511719 Z M 384.316406 285.511719 " fill-opacity="1" fill-rule="nonzero"/><path fill="#000000" d="M 406.292969 281.679688 C 406.519531 282.917969 405.730469 284.042969 404.488281 284.269531 C 403.25 284.496094 402.121094 283.707031 401.898438 282.46875 C 401.671875 281.226562 402.460938 280.101562 403.699219 279.875 C 404.941406 279.648438 406.066406 280.4375 406.292969 281.679688 Z M 406.292969 281.679688 " fill-opacity="1" fill-rule="nonzero"/><path fill="#000000" d="M 395.699219 295.3125 L 393.109375 295.765625 C 392.882812 295.765625 392.65625 295.652344 392.65625 295.425781 L 391.980469 291.820312 C 391.980469 291.59375 392.09375 291.371094 392.320312 291.371094 C 392.542969 291.371094 392.769531 291.484375 392.769531 291.707031 L 393.332031 294.863281 L 395.585938 294.527344 C 395.8125 294.527344 396.039062 294.636719 396.039062 294.863281 C 396.039062 295.089844 395.925781 295.203125 395.699219 295.3125 Z M 395.699219 295.3125 " fill-opacity="1" fill-rule="nonzero"/><path fill="#000000" d="M 396.601562 273.226562 C 396.601562 273.226562 396.375 275.816406 400.207031 275.253906 C 403.136719 274.804688 406.855469 274.917969 408.660156 275.03125 C 409.671875 275.03125 410.6875 274.464844 411.027344 273.675781 C 411.25 273 411.136719 272.324219 410.460938 271.988281 C 409.222656 271.199219 404.941406 269.621094 401.335938 270.183594 C 396.714844 270.859375 396.601562 273.226562 396.601562 273.226562 Z M 396.601562 273.226562 " fill-opacity="1" fill-rule="nonzero"/><path fill="#000000" d="M 384.65625 275.367188 C 384.65625 275.367188 385.78125 277.734375 381.839844 278.523438 C 378.90625 279.085938 375.414062 280.4375 373.835938 281.113281 C 372.933594 281.453125 371.808594 281.339844 371.246094 280.664062 C 370.792969 280.101562 370.679688 279.425781 371.132812 278.859375 C 372.035156 277.734375 375.527344 274.804688 379.132812 274.128906 C 383.753906 273.226562 384.65625 275.367188 384.65625 275.367188 Z M 384.65625 275.367188 " fill-opacity="1" fill-rule="nonzero"/><g mask="url(#b6d75a0b3b)"><g transform="matrix(1, 0, 0, 1, 389, 297)"><g clip-path="url(#2ff4dfc0d2)"><g clip-path="url(#f1cd9e8f50)"><path fill="#daf6f9" d="M 11.769531 1.808594 C 11.769531 1.808594 12.222656 5.753906 6.925781 6.652344 C 1.742188 7.554688 0.726562 3.722656 0.726562 3.722656 C 6.25 -0.109375 11.769531 1.808594 11.769531 1.808594 Z M 11.769531 1.808594 " fill-opacity="1" fill-rule="nonzero"/></g></g></g></g><path fill="#000000" d="M 395.359375 301.285156 C 391.417969 301.964844 388.375 300.949219 388.261719 300.835938 C 388.035156 300.722656 387.921875 300.5 388.035156 300.386719 C 388.148438 300.160156 388.375 300.046875 388.488281 300.160156 C 388.601562 300.160156 395.136719 302.527344 401.558594 297.90625 C 401.785156 297.792969 402.011719 297.792969 402.121094 298.019531 C 402.234375 298.246094 402.234375 298.46875 402.011719 298.582031 C 399.757812 300.160156 397.390625 300.949219 395.359375 301.285156 Z M 395.359375 301.285156 " fill-opacity="1" fill-rule="nonzero"/><path fill="#db7157" d="M 370.792969 336.335938 L 394.234375 331.375 L 415.421875 335.207031 C 415.421875 335.207031 411.136719 343.660156 393.332031 343.546875 C 375.527344 343.433594 370.792969 336.335938 370.792969 336.335938 Z M 370.792969 336.335938 " fill-opacity="1" fill-rule="nonzero"/><path fill="#000000" d="M 359.1875 274.464844 C 359.1875 274.464844 377.667969 265.902344 376.878906 248.546875 C 376.878906 248.546875 355.46875 248.09375 359.1875 274.464844 Z M 359.1875 274.464844 " fill-opacity="1" fill-rule="nonzero"/><path fill="#000000" d="M 372.144531 249.109375 C 372.144531 249.109375 380.597656 271.085938 416.773438 263.535156 C 416.773438 263.535156 410.914062 243.585938 392.09375 243.476562 C 373.386719 243.363281 372.144531 249.109375 372.144531 249.109375 Z M 372.144531 249.109375 " fill-opacity="1" fill-rule="nonzero"/><path fill="#db7157" d="M 385.21875 398.542969 L 371.359375 400.34375 L 370.230469 397.300781 C 369.78125 396.175781 368.765625 395.386719 367.636719 395.273438 C 366.511719 395.160156 365.496094 395.835938 365.382812 396.964844 L 363.582031 412.402344 L 364.820312 424.347656 C 374.0625 425.363281 377.21875 422.769531 378.230469 420.292969 C 378.570312 420.179688 378.796875 420.179688 379.132812 420.066406 L 388.9375 416.574219 C 389.953125 416.347656 390.515625 415.332031 390.066406 414.320312 C 389.839844 413.53125 389.050781 412.515625 386.910156 412.855469 L 389.164062 412.515625 C 390.175781 412.289062 390.742188 411.277344 390.402344 410.148438 C 390.066406 409.136719 388.824219 408.457031 387.359375 408.457031 L 388.9375 408.121094 C 390.066406 407.894531 390.628906 406.65625 390.066406 405.417969 C 389.613281 404.289062 388.375 403.726562 387.246094 403.839844 L 384.769531 404.175781 L 387.132812 403.164062 C 388.375 402.824219 388.824219 401.472656 388.148438 400.230469 C 387.699219 398.992188 386.347656 398.429688 385.21875 398.542969 Z M 385.21875 398.542969 " fill-opacity="1" fill-rule="nonzero"/><path fill="#daf6f9" d="M 318.617188 432.351562 L 378.230469 421.871094 C 383.867188 420.855469 389.613281 421.980469 394.347656 425.023438 L 394.910156 424.6875 C 399.757812 421.871094 405.390625 420.96875 410.800781 421.980469 L 470.191406 433.363281 Z M 318.617188 432.351562 " fill-opacity="1" fill-rule="nonzero"/><g clip-path="url(#f3b16c82df)"><path fill="#35a0cd" d="M 312.980469 431.5625 L 475.824219 431.5625 L 475.824219 441.367188 L 312.980469 441.367188 Z M 312.980469 431.5625 " fill-opacity="1" fill-rule="nonzero"/></g><g clip-path="url(#8001f5e066)"><g mask="url(#ab6efedd47)"><g transform="matrix(1, 0, 0, 1, 312, 430)"><g clip-path="url(#7fb8b50f6a)"><g clip-path="url(#3914aef833)"><path fill="#db7157" d="M 0.980469 1.5625 L 163.824219 1.5625 L 163.824219 11.367188 L 0.980469 11.367188 Z M 0.980469 1.5625 " fill-opacity="1" fill-rule="nonzero"/></g></g></g></g></g><g clip-path="url(#07bd68dd39)"><g mask="url(#5ccf36885c)"><g transform="matrix(1, 0, 0, 1, 389, 430)"><g clip-path="url(#4061002155)"><g clip-path="url(#f4ef51f5dc)"><path fill="#000000" d="M 0.613281 1.5625 L 10.417969 1.5625 L 10.417969 11.367188 L 0.613281 11.367188 Z M 0.613281 1.5625 " fill-opacity="1" fill-rule="nonzero"/></g></g></g></g></g><path fill="#000000" d="M 352.988281 382.3125 C 352.875 382.3125 352.648438 382.203125 352.648438 382.089844 L 347.464844 365.410156 C 347.355469 365.183594 347.464844 364.960938 347.691406 364.960938 C 347.917969 364.847656 348.140625 364.960938 348.140625 365.183594 L 353.328125 381.863281 C 353.4375 382.089844 353.328125 382.3125 353.101562 382.3125 C 352.988281 382.3125 352.988281 382.3125 352.988281 382.3125 Z M 352.988281 382.3125 " fill-opacity="1" fill-rule="nonzero"/><path fill="#000000" d="M 434.578125 380.285156 C 434.242188 380.171875 434.128906 379.949219 434.242188 379.835938 L 438.183594 366.988281 C 438.296875 366.761719 438.523438 366.648438 438.636719 366.761719 C 438.859375 366.875 438.972656 367.101562 438.859375 367.214844 L 434.917969 380.058594 C 434.917969 380.171875 434.691406 380.285156 434.578125 380.285156 Z M 434.578125 380.285156 " fill-opacity="1" fill-rule="nonzero"/><path fill="#000000" d="M 392.996094 420.292969 C 392.769531 420.292969 392.65625 420.179688 392.65625 419.953125 C 392.542969 419.726562 392.769531 419.503906 392.882812 419.503906 L 423.421875 410.824219 C 423.648438 410.710938 423.871094 410.9375 423.871094 411.050781 C 423.984375 411.277344 423.761719 411.5 423.648438 411.5 Z M 392.996094 420.292969 " fill-opacity="1" fill-rule="nonzero"/></svg>