<svg xmlns="http://www.w3.org/2000/svg" xmlns:xlink="http://www.w3.org/1999/xlink" width="1366" zoomAndPan="magnify" viewBox="0 0 1024.5 576" height="768" preserveAspectRatio="xMidYMid meet" version="1.0"><defs><filter x="0%" y="0%" width="100%" height="100%" id="849c7922d0"><feColorMatrix values="0 0 0 0 1 0 0 0 0 1 0 0 0 0 1 0 0 0 1 0" color-interpolation-filters="sRGB"/></filter><clipPath id="db00a9183a"><path d="M 328 345 L 681 345 L 681 444.867188 L 328 444.867188 Z M 328 345 " clip-rule="nonzero"/></clipPath><clipPath id="494b5c82e0"><path d="M 559.3125 420 L 575 420 L 575 431.132812 L 559.3125 431.132812 Z M 559.3125 420 " clip-rule="nonzero"/></clipPath><clipPath id="12de00be7d"><path d="M 588.285156 402.792969 C 588.285156 402.792969 583.605469 410.347656 577.21875 405.941406 L 559.3125 431.042969 L 597.101562 411.878906 Z M 588.285156 402.792969 " clip-rule="nonzero"/></clipPath><clipPath id="5efacbeed7"><path d="M 531 428 L 546 428 L 546 438 L 531 438 Z M 531 428 " clip-rule="nonzero"/></clipPath><clipPath id="c42190d555"><path d="M 569.390625 424.746094 C 569.390625 424.746094 561.832031 429.511719 558.054688 422.765625 L 531.0625 437.609375 L 573.4375 436.710938 Z M 569.390625 424.746094 " clip-rule="nonzero"/></clipPath><clipPath id="01825a4406"><path d="M 468 417 L 520 417 L 520 444.867188 L 468 444.867188 Z M 468 417 " clip-rule="nonzero"/></clipPath><clipPath id="cee043af6f"><path d="M 374 111.28125 L 408 111.28125 L 408 130 L 374 130 Z M 374 111.28125 " clip-rule="nonzero"/></clipPath><clipPath id="dc30246bd8"><path d="M 374 111.28125 L 408 111.28125 L 408 130 L 374 130 Z M 374 111.28125 " clip-rule="nonzero"/></clipPath><clipPath id="89bc65a292"><path d="M 591 198.105469 L 600.699219 198.105469 L 600.699219 201 L 591 201 Z M 591 198.105469 " clip-rule="nonzero"/></clipPath><clipPath id="0ad8f0b3d0"><path d="M 591.34375 198.554688 L 600.519531 199.8125 C 600.519531 199.8125 599.800781 203.773438 595.570312 203.234375 C 591.34375 202.691406 591.34375 198.554688 591.34375 198.554688 Z M 591.34375 198.554688 " clip-rule="nonzero"/></clipPath><mask id="007e1a895b"><g filter="url(#849c7922d0)"><rect x="-102.45" width="1229.4" fill="#000000" y="-57.6" height="691.2" fill-opacity="0.23"/></g></mask><clipPath id="f588a205cb"><path d="M 1 1 L 12.371094 1 L 12.371094 14.988281 L 1 14.988281 Z M 1 1 " clip-rule="nonzero"/></clipPath><clipPath id="bc47dbf2ff"><rect x="0" width="13" y="0" height="15"/></clipPath><mask id="c6e40d0002"><g filter="url(#849c7922d0)"><rect x="-102.45" width="1229.4" fill="#000000" y="-57.6" height="691.2" fill-opacity="0.23"/></g></mask><clipPath id="23e91549b6"><path d="M 0.6875 1 L 12.683594 1 L 12.683594 15 L 0.6875 15 Z M 0.6875 1 " clip-rule="nonzero"/></clipPath><clipPath id="69bd0e244a"><rect x="0" width="13" y="0" height="16"/></clipPath></defs><g clip-path="url(#db00a9183a)"><path fill="#000000" d="M 562.640625 346.46875 L 547.257812 445.078125 L 537.179688 445.078125 L 549.957031 345.03125 Z M 617.792969 345.03125 L 629.582031 445.078125 L 641.277344 445.078125 L 631.921875 345.03125 Z M 655.492188 346.46875 L 670.878906 445.078125 L 680.957031 445.078125 L 668.179688 345.03125 Z M 377.929688 345.03125 L 368.570312 445.078125 L 380.265625 445.078125 L 392.054688 345.03125 Z M 341.667969 345.03125 L 328.984375 445.078125 L 339.058594 445.078125 L 354.445312 346.46875 Z M 341.667969 345.03125 " fill-opacity="1" fill-rule="nonzero"/></g><path fill="#ffffff" d="M 423.183594 419.707031 L 425.523438 426.003906 L 453.144531 434.191406 L 457.644531 432.394531 L 434.96875 422.136719 Z M 423.183594 419.707031 " fill-opacity="1" fill-rule="nonzero"/><path fill="#ffffff" d="M 516.214844 417.367188 L 500.921875 420.875 L 484.277344 429.421875 L 484.277344 434.730469 L 500.652344 428.882812 L 514.328125 422.136719 Z M 516.214844 417.367188 " fill-opacity="1" fill-rule="nonzero"/><path fill="#ffffff" d="M 542.667969 437.699219 L 549.867188 435 L 569.300781 435.273438 L 573.347656 436.710938 L 566.78125 439.050781 L 545.367188 439.050781 Z M 542.667969 437.699219 " fill-opacity="1" fill-rule="nonzero"/><path fill="#ffffff" d="M 597.101562 411.878906 L 575.867188 420.335938 L 553.734375 430.503906 L 555.265625 434.730469 L 579.464844 421.867188 L 596.832031 412.867188 Z M 597.101562 411.878906 " fill-opacity="1" fill-rule="nonzero"/><path fill="#ffffff" d="M 613.296875 224.105469 L 677.804688 224.105469 C 687.792969 224.105469 695.171875 232.382812 693.191406 241.199219 L 672.589844 330.363281 L 672.589844 337.921875 C 672.589844 342.601562 668.449219 346.378906 663.320312 346.378906 L 580.277344 346.378906 L 580.277344 314.257812 L 637.679688 310.210938 Z M 613.296875 224.105469 " fill-opacity="1" fill-rule="nonzero"/><path fill="#ffffff" d="M 581.445312 388.574219 L 589.902344 406.660156 L 580.816406 411.609375 L 570.648438 393.882812 Z M 581.445312 388.574219 " fill-opacity="1" fill-rule="nonzero"/><path fill="#000000" d="M 588.285156 402.792969 C 588.285156 402.792969 583.605469 410.347656 577.21875 405.941406 L 559.3125 431.042969 L 597.101562 411.878906 Z M 588.285156 402.792969 " fill-opacity="1" fill-rule="nonzero"/><g clip-path="url(#494b5c82e0)"><g clip-path="url(#12de00be7d)"><path fill="#ffffff" d="M 559.851562 421.144531 C 559.851562 421.144531 569.929688 417.90625 574.96875 429.875 L 556.523438 433.472656 Z M 559.851562 421.144531 " fill-opacity="1" fill-rule="nonzero"/></g></g><path fill="#ffffff" d="M 559.296875 431.007812 L 597.105469 411.871094 L 598.773438 415.160156 L 560.964844 434.300781 Z M 559.296875 431.007812 " fill-opacity="1" fill-rule="nonzero"/><path fill="#ffffff" d="M 577.488281 413.769531 C 577.398438 413.769531 577.21875 413.769531 577.128906 413.679688 C 574.699219 412.507812 572.71875 412.238281 572.71875 412.238281 C 572.359375 412.238281 572.089844 411.878906 572.089844 411.519531 C 572.179688 411.160156 572.539062 410.890625 572.898438 410.890625 C 572.988281 410.890625 575.148438 411.160156 577.757812 412.417969 C 578.117188 412.597656 578.207031 412.957031 578.027344 413.320312 C 577.9375 413.589844 577.757812 413.679688 577.488281 413.769531 Z M 577.488281 413.769531 " fill-opacity="1" fill-rule="nonzero"/><path fill="#ffffff" d="M 575.148438 416.828125 C 575.058594 416.828125 574.878906 416.828125 574.789062 416.738281 C 572.359375 415.566406 570.378906 415.296875 570.378906 415.296875 C 570.019531 415.296875 569.75 414.9375 569.75 414.578125 C 569.839844 414.21875 570.199219 413.949219 570.558594 413.949219 C 570.648438 413.949219 572.808594 414.21875 575.417969 415.476562 C 575.777344 415.65625 575.867188 416.019531 575.6875 416.378906 C 575.6875 416.648438 575.417969 416.828125 575.148438 416.828125 Z M 575.148438 416.828125 " fill-opacity="1" fill-rule="nonzero"/><path fill="#ffffff" d="M 572.898438 419.886719 C 572.808594 419.886719 572.628906 419.886719 572.539062 419.796875 C 570.109375 418.625 568.128906 418.355469 568.128906 418.355469 C 567.769531 418.355469 567.5 417.996094 567.5 417.636719 C 567.589844 417.277344 567.949219 417.007812 568.308594 417.007812 C 568.398438 417.007812 570.558594 417.277344 573.167969 418.535156 C 573.527344 418.71875 573.617188 419.078125 573.4375 419.4375 C 573.347656 419.796875 573.078125 419.886719 572.898438 419.886719 Z M 572.898438 419.886719 " fill-opacity="1" fill-rule="nonzero"/><path fill="#ffffff" d="M 569.300781 408.910156 L 569.121094 428.882812 L 558.773438 429.421875 L 557.332031 409.089844 Z M 569.300781 408.910156 " fill-opacity="1" fill-rule="nonzero"/><path fill="#000000" d="M 569.390625 424.746094 C 569.390625 424.746094 561.832031 429.511719 558.054688 422.765625 L 531.0625 437.609375 L 573.4375 436.710938 Z M 569.390625 424.746094 " fill-opacity="1" fill-rule="nonzero"/><g clip-path="url(#5efacbeed7)"><g clip-path="url(#c42190d555)"><path fill="#ffffff" d="M 535.738281 428.972656 C 535.738281 428.972656 546.175781 430.414062 545.636719 443.371094 L 527.460938 438.691406 Z M 535.738281 428.972656 " fill-opacity="1" fill-rule="nonzero"/></g></g><path fill="#ffffff" d="M 531.035156 437.71875 L 573.402344 436.804688 L 573.484375 440.492188 L 531.113281 441.410156 Z M 531.035156 437.71875 " fill-opacity="1" fill-rule="nonzero"/><path fill="#ffffff" d="M 554.902344 429.875 C 554.8125 429.875 554.722656 429.785156 554.632812 429.695312 C 552.925781 427.535156 551.304688 426.542969 551.304688 426.542969 C 550.945312 426.363281 550.855469 425.914062 551.125 425.644531 C 551.304688 425.375 551.753906 425.285156 552.113281 425.464844 C 552.203125 425.554688 554.003906 426.632812 555.804688 428.972656 C 556.074219 429.242188 555.984375 429.695312 555.625 429.964844 C 555.355469 429.964844 555.082031 429.964844 554.902344 429.875 Z M 554.902344 429.875 " fill-opacity="1" fill-rule="nonzero"/><path fill="#ffffff" d="M 551.484375 431.671875 C 551.394531 431.671875 551.304688 431.582031 551.214844 431.492188 C 549.503906 429.332031 547.886719 428.34375 547.886719 428.34375 C 547.527344 428.164062 547.4375 427.714844 547.707031 427.445312 C 547.886719 427.175781 548.335938 427.085938 548.695312 427.265625 C 548.785156 427.355469 550.585938 428.433594 552.382812 430.773438 C 552.65625 431.042969 552.566406 431.492188 552.203125 431.761719 C 551.933594 431.761719 551.664062 431.761719 551.484375 431.671875 Z M 551.484375 431.671875 " fill-opacity="1" fill-rule="nonzero"/><path fill="#ffffff" d="M 548.066406 433.472656 C 547.976562 433.472656 547.886719 433.382812 547.796875 433.292969 C 546.085938 431.132812 544.46875 430.144531 544.46875 430.144531 C 544.105469 429.964844 544.015625 429.511719 544.289062 429.242188 C 544.46875 428.972656 544.917969 428.882812 545.277344 429.0625 C 545.367188 429.152344 547.167969 430.234375 549.054688 432.574219 C 549.324219 432.84375 549.234375 433.292969 548.875 433.5625 C 548.515625 433.5625 548.246094 433.5625 548.066406 433.472656 Z M 548.066406 433.472656 " fill-opacity="1" fill-rule="nonzero"/><path fill="#ffad65" d="M 596.113281 290.597656 C 596.113281 291.316406 596.113281 291.945312 596.113281 292.664062 C 595.839844 303.28125 594.582031 313.898438 593.773438 324.515625 C 592.78125 330.632812 590.261719 332.613281 588.285156 333.0625 C 588.195312 333.242188 588.015625 333.421875 587.925781 333.601562 L 583.515625 339.8125 C 583.15625 340.441406 582.34375 340.710938 581.625 340.441406 C 581.085938 340.261719 580.457031 339.722656 581.085938 338.28125 L 580.457031 339.722656 C 580.097656 340.441406 579.195312 340.710938 578.386719 340.351562 C 577.667969 340.082031 577.398438 339.179688 577.667969 338.28125 L 577.128906 339.269531 C 576.765625 339.992188 575.6875 340.261719 574.878906 339.8125 C 574.15625 339.449219 573.886719 338.550781 574.246094 337.921875 L 574.878906 336.480469 L 574.96875 336.300781 L 573.796875 337.832031 C 573.347656 338.640625 572.269531 338.820312 571.367188 338.371094 C 570.648438 337.921875 570.378906 337.023438 570.738281 336.300781 L 574.699219 327.304688 L 572.628906 326.316406 C 571.910156 325.957031 571.457031 325.234375 571.550781 324.425781 C 571.640625 323.617188 572.359375 323.074219 573.257812 323.074219 L 584.953125 322.894531 C 581.984375 300.761719 579.375 278.71875 577.308594 256.496094 C 577.21875 251.457031 581.804688 247.320312 587.203125 247.320312 C 587.382812 247.320312 587.5625 247.320312 587.742188 247.320312 C 592.78125 247.589844 592.78125 252.808594 593.863281 257.394531 C 596.113281 268.011719 596.292969 279.078125 596.113281 290.597656 Z M 596.113281 290.597656 " fill-opacity="1" fill-rule="nonzero"/><path fill="#000000" d="M 574.699219 336.933594 C 574.699219 336.933594 574.609375 336.933594 574.699219 336.933594 C 574.519531 336.84375 574.519531 336.75 574.519531 336.660156 L 576.945312 331.445312 C 576.945312 331.351562 577.128906 331.351562 577.21875 331.351562 C 577.308594 331.351562 577.308594 331.535156 577.308594 331.625 L 574.878906 336.84375 C 574.789062 336.933594 574.789062 336.933594 574.699219 336.933594 Z M 574.699219 336.933594 " fill-opacity="1" fill-rule="nonzero"/><path fill="#000000" d="M 577.757812 338.191406 C 577.578125 338.101562 577.578125 338.011719 577.578125 337.921875 L 580.1875 333.152344 C 580.277344 333.0625 580.367188 333.0625 580.457031 333.0625 C 580.546875 333.152344 580.546875 333.242188 580.546875 333.332031 L 577.9375 338.101562 C 577.9375 338.191406 577.847656 338.191406 577.757812 338.191406 Z M 577.757812 338.191406 " fill-opacity="1" fill-rule="nonzero"/><path fill="#000000" d="M 580.726562 338.820312 C 580.546875 338.730469 580.546875 338.640625 580.546875 338.550781 L 582.796875 334.59375 C 582.886719 334.503906 582.976562 334.503906 583.066406 334.503906 C 583.15625 334.59375 583.15625 334.683594 583.15625 334.773438 L 580.90625 338.730469 C 580.90625 338.820312 580.816406 338.820312 580.726562 338.820312 Z M 580.726562 338.820312 " fill-opacity="1" fill-rule="nonzero"/><path fill="#51ccde" d="M 640.109375 300.851562 L 640.109375 322.804688 C 640.109375 332.792969 631.832031 340.710938 621.933594 340.351562 L 584.773438 339 L 580.1875 374.449219 L 587.832031 397.664062 L 576.675781 401.351562 L 574.609375 417.367188 L 553.824219 415.746094 L 553.464844 370.492188 L 540.597656 344.308594 C 536.640625 336.300781 540.238281 326.675781 548.695312 322.804688 L 557.511719 318.847656 C 561.203125 314.257812 566.511719 311.019531 572.628906 310.210938 Z M 640.109375 300.851562 " fill-opacity="1" fill-rule="nonzero"/><path fill="#0d4fb1" d="M 590.984375 231.125 C 590.984375 231.125 577.667969 239.042969 575.148438 260.546875 L 594.132812 270.980469 Z M 590.984375 231.125 " fill-opacity="1" fill-rule="nonzero"/><path fill="#0d4fb1" d="M 616.445312 224.375 C 623.011719 224.914062 629.402344 226.355469 635.519531 228.785156 C 637.859375 229.683594 640.558594 230.855469 641.996094 233.101562 C 643.886719 236.074219 642.445312 239.402344 642.265625 242.640625 C 642.265625 242.640625 640.46875 308.769531 640.46875 308.769531 L 586.214844 308.769531 L 584.234375 244.800781 C 583.785156 237.960938 587.832031 231.753906 594.042969 229.503906 C 601.058594 227.074219 609.605469 224.285156 613.296875 224.015625 Z M 616.445312 224.375 " fill-opacity="1" fill-rule="nonzero"/><path fill="#000000" d="M 585.316406 267.023438 C 585.132812 267.023438 585.042969 266.933594 585.042969 266.753906 L 584.59375 247.320312 C 584.59375 247.140625 584.683594 247.050781 584.863281 246.960938 C 585.042969 246.960938 585.132812 247.050781 585.226562 247.230469 L 585.675781 266.664062 C 585.675781 266.84375 585.496094 267.023438 585.316406 267.023438 Z M 585.316406 267.023438 " fill-opacity="1" fill-rule="nonzero"/><path fill="#ffad65" d="M 597.191406 228.515625 C 597.191406 228.515625 607 224.644531 613.296875 224.195312 C 613.296875 224.195312 621.84375 224.554688 627.78125 226.355469 C 627.78125 226.355469 624.542969 233.285156 609.425781 234.453125 C 594.402344 235.53125 597.191406 228.515625 597.191406 228.515625 Z M 597.191406 228.515625 " fill-opacity="1" fill-rule="nonzero"/><path fill="#ffffff" d="M 347.15625 211.421875 L 332.132812 211.421875 C 322.144531 211.421875 314.765625 220.597656 316.746094 230.3125 L 337.351562 328.746094 L 337.351562 337.113281 C 337.351562 342.238281 341.488281 346.378906 346.617188 346.378906 L 429.664062 346.378906 L 429.664062 310.929688 L 372.257812 306.519531 Z M 347.15625 211.421875 " fill-opacity="1" fill-rule="nonzero"/><path fill="#000000" d="M 463.042969 422.765625 L 480.136719 414.9375 L 516.214844 417.367188 L 468.441406 439.679688 Z M 463.042969 422.765625 " fill-opacity="1" fill-rule="nonzero"/><g clip-path="url(#01825a4406)"><path fill="#ffffff" d="M 481.847656 436.800781 C 480.226562 437.519531 479.777344 439.410156 480.675781 441.03125 L 471.589844 445.078125 L 468.171875 438.960938 L 516.214844 417.367188 L 519.632812 423.484375 L 486.433594 438.332031 C 485.535156 436.710938 483.464844 436.082031 481.847656 436.800781 Z M 481.847656 436.800781 " fill-opacity="1" fill-rule="nonzero"/></g><path fill="#ffffff" d="M 490.125 420.335938 C 489.945312 420.335938 489.765625 420.246094 489.675781 420.15625 C 489.492188 419.886719 489.492188 419.527344 489.765625 419.347656 L 494.441406 415.386719 C 494.710938 415.207031 495.070312 415.207031 495.253906 415.476562 C 495.433594 415.746094 495.433594 416.109375 495.164062 416.289062 L 490.484375 420.246094 C 490.394531 420.246094 490.304688 420.335938 490.125 420.335938 Z M 490.125 420.335938 " fill-opacity="1" fill-rule="nonzero"/><path fill="#ffffff" d="M 483.195312 420.15625 C 483.015625 420.15625 482.835938 420.066406 482.746094 419.976562 C 482.566406 419.707031 482.566406 419.347656 482.835938 419.167969 L 487.515625 415.207031 C 487.785156 415.027344 488.144531 415.027344 488.324219 415.296875 C 488.503906 415.566406 488.503906 415.925781 488.234375 416.109375 L 483.554688 420.066406 C 483.464844 420.066406 483.375 420.15625 483.195312 420.15625 Z M 483.195312 420.15625 " fill-opacity="1" fill-rule="nonzero"/><path fill="#ffad65" d="M 470.960938 391.003906 L 453.863281 398.921875 L 463.3125 423.574219 L 480.40625 415.65625 Z M 470.960938 391.003906 " fill-opacity="1" fill-rule="nonzero"/><path fill="#000000" d="M 413.828125 403.332031 L 431.640625 408.371094 L 457.644531 432.394531 L 406.988281 418.445312 Z M 413.828125 403.332031 " fill-opacity="1" fill-rule="nonzero"/><path fill="#ffffff" d="M 418.867188 424.925781 C 417.15625 424.476562 415.535156 425.464844 415.175781 427.175781 L 405.640625 424.476562 L 407.167969 417.996094 L 457.554688 432.484375 L 456.113281 438.960938 L 421.292969 428.972656 C 421.65625 427.175781 420.574219 425.375 418.867188 424.925781 Z M 418.867188 424.925781 " fill-opacity="1" fill-rule="nonzero"/><path fill="#ffffff" d="M 442.4375 418.445312 L 436.320312 418.445312 C 435.960938 418.445312 435.78125 418.175781 435.78125 417.90625 C 435.78125 417.546875 435.960938 417.367188 436.320312 417.367188 L 442.4375 417.367188 C 442.796875 417.367188 442.976562 417.636719 442.976562 417.90625 C 443.066406 418.265625 442.796875 418.445312 442.4375 418.445312 Z M 442.4375 418.445312 " fill-opacity="1" fill-rule="nonzero"/><path fill="#ffffff" d="M 437.308594 414.039062 L 431.191406 414.039062 C 430.921875 414.039062 430.652344 413.769531 430.652344 413.5 C 430.652344 413.226562 430.921875 412.957031 431.191406 412.957031 L 437.308594 412.957031 C 437.667969 412.957031 437.851562 413.226562 437.851562 413.5 C 437.941406 413.769531 437.667969 414.039062 437.308594 414.039062 Z M 437.308594 414.039062 " fill-opacity="1" fill-rule="nonzero"/><path fill="#ffad65" d="M 440.730469 385.425781 L 422.644531 380.386719 L 413.558594 403.960938 L 431.640625 408.910156 Z M 440.730469 385.425781 " fill-opacity="1" fill-rule="nonzero"/><path fill="#0d4fb1" d="M 446.488281 299.59375 L 461.601562 306.519531 C 471.679688 311.109375 476.089844 322.625 471.320312 332.253906 L 436.5 403.332031 L 414.726562 396.132812 Z M 446.488281 299.59375 " fill-opacity="1" fill-rule="nonzero"/><path fill="#0d4fb1" d="M 352.015625 280.25 L 352.015625 306.519531 C 352.015625 318.488281 361.914062 328.023438 373.878906 327.574219 L 418.414062 325.957031 L 456.742188 412.328125 L 478.695312 400.992188 L 456.382812 312.640625 C 453.683594 301.394531 444.417969 292.933594 432.992188 291.40625 Z M 352.015625 280.25 " fill-opacity="1" fill-rule="nonzero"/><path fill="#000000" d="M 444.957031 386.328125 C 444.867188 386.328125 444.6875 386.238281 444.6875 386.148438 L 429.390625 351.6875 C 429.300781 351.507812 429.390625 351.328125 429.570312 351.238281 C 429.753906 351.148438 429.933594 351.238281 430.023438 351.417969 L 445.316406 385.875 C 445.40625 386.058594 445.316406 386.238281 445.136719 386.328125 C 445.046875 386.328125 445.046875 386.328125 444.957031 386.328125 Z M 444.957031 386.328125 " fill-opacity="1" fill-rule="nonzero"/><path fill="#000000" d="M 464.300781 346.738281 C 464.121094 346.738281 464.03125 346.648438 463.941406 346.46875 L 450.625 301.753906 C 450.535156 301.574219 450.714844 301.394531 450.804688 301.300781 C 450.984375 301.210938 451.164062 301.394531 451.253906 301.484375 L 464.570312 346.199219 C 464.660156 346.378906 464.480469 346.558594 464.390625 346.648438 C 464.390625 346.738281 464.390625 346.738281 464.300781 346.738281 Z M 464.300781 346.738281 " fill-opacity="1" fill-rule="nonzero"/><path fill="#ffffff" d="M 446.757812 302.203125 L 486.253906 284.386719 L 417.875 275.210938 L 382.246094 292.304688 Z M 446.757812 302.203125 " fill-opacity="1" fill-rule="nonzero"/><path fill="#000000" d="M 446.757812 303.371094 C 446.667969 303.371094 446.667969 303.371094 446.578125 303.371094 L 382.066406 293.476562 C 381.527344 293.386719 381.167969 293.023438 381.078125 292.484375 C 380.988281 291.945312 381.257812 291.496094 381.707031 291.226562 L 417.335938 274.132812 C 417.515625 274.039062 417.785156 273.949219 418.054688 274.039062 L 486.433594 283.21875 C 486.976562 283.308594 487.425781 283.667969 487.425781 284.207031 C 487.515625 284.746094 487.246094 285.289062 486.703125 285.46875 L 447.207031 303.28125 C 447.117188 303.371094 446.9375 303.371094 446.757812 303.371094 Z M 386.296875 291.765625 L 446.667969 301.03125 L 482.027344 285.109375 L 418.144531 276.558594 Z M 386.296875 291.765625 " fill-opacity="1" fill-rule="nonzero"/><path fill="#ffad65" d="M 446.847656 276.378906 C 447.027344 277.371094 446.398438 278.359375 445.40625 278.539062 L 443.429688 278.808594 C 445.40625 278.539062 445.945312 279.4375 446.039062 280.160156 C 446.21875 281.148438 445.585938 282.046875 444.6875 282.226562 L 435.421875 285.46875 C 435.152344 285.558594 434.878906 285.648438 434.609375 285.738281 C 433.351562 287.988281 430.113281 290.324219 422.015625 289.425781 L 380.988281 282.320312 L 378.019531 261.265625 L 422.644531 278.539062 L 426.332031 264.773438 C 426.601562 263.785156 427.59375 263.15625 428.582031 263.246094 C 429.570312 263.335938 430.472656 264.054688 430.652344 265.042969 L 431.28125 267.832031 L 443.96875 266.125 C 444.957031 265.945312 446.039062 266.574219 446.398438 267.5625 C 446.847656 268.734375 446.128906 269.902344 445.046875 270.261719 L 442.796875 271.160156 L 445.046875 270.800781 C 446.039062 270.710938 447.027344 271.25 447.296875 272.242188 C 447.65625 273.320312 446.9375 274.492188 445.855469 274.671875 L 444.417969 275.03125 C 445.585938 274.851562 446.667969 275.390625 446.847656 276.378906 Z M 446.847656 276.378906 " fill-opacity="1" fill-rule="nonzero"/><path fill="#000000" d="M 435.960938 272.332031 C 435.871094 272.332031 435.78125 272.242188 435.78125 272.152344 C 435.78125 272.0625 435.871094 271.882812 435.960938 271.882812 L 443.339844 270.621094 C 443.429688 270.621094 443.609375 270.710938 443.609375 270.800781 C 443.609375 270.890625 443.519531 271.070312 443.429688 271.070312 L 435.960938 272.332031 C 436.050781 272.332031 436.050781 272.332031 435.960938 272.332031 Z M 435.960938 272.332031 " fill-opacity="1" fill-rule="nonzero"/><path fill="#000000" d="M 437.21875 276.648438 C 437.128906 276.648438 437.039062 276.558594 437.039062 276.46875 C 437.039062 276.378906 437.128906 276.199219 437.21875 276.199219 L 444.058594 274.671875 C 444.148438 274.671875 444.328125 274.761719 444.328125 274.851562 C 444.328125 274.941406 444.238281 275.121094 444.148438 275.121094 Z M 437.21875 276.648438 " fill-opacity="1" fill-rule="nonzero"/><path fill="#000000" d="M 438.300781 280.25 C 438.210938 280.25 438.121094 280.160156 438.121094 280.070312 C 438.121094 279.980469 438.210938 279.800781 438.300781 279.800781 L 444.058594 278.449219 C 444.148438 278.449219 444.328125 278.539062 444.328125 278.628906 C 444.328125 278.71875 444.238281 278.898438 444.148438 278.898438 Z M 438.300781 280.25 " fill-opacity="1" fill-rule="nonzero"/><path fill="#ffad65" d="M 438.300781 233.824219 L 493.992188 207.730469 L 499.121094 214.660156 C 499.121094 214.660156 468.351562 236.523438 447.027344 249.839844 C 443.609375 251.996094 437.21875 247.679688 435.421875 244.082031 C 433.710938 240.839844 435.0625 235.621094 438.300781 233.824219 Z M 438.300781 233.824219 " fill-opacity="1" fill-rule="nonzero"/><path fill="#ffad65" d="M 491.5625 211.058594 C 491.5625 211.058594 493.542969 203.863281 500.921875 200.894531 L 505.417969 194.503906 C 506.140625 193.515625 507.398438 193.246094 508.476562 193.785156 C 509.648438 194.414062 510.097656 195.855469 509.558594 197.023438 L 507.578125 201.253906 L 508.929688 200.351562 C 511.085938 198.914062 512.707031 196.84375 513.515625 194.324219 L 515.855469 187.21875 C 516.125 186.40625 516.753906 185.777344 517.566406 185.6875 C 519.183594 185.417969 520.535156 186.859375 520.175781 188.476562 L 518.285156 198.195312 C 517.566406 201.972656 515.316406 205.210938 512.078125 207.101562 L 494.710938 217.269531 Z M 491.5625 211.058594 " fill-opacity="1" fill-rule="nonzero"/><path fill="#51ccde" d="M 373.609375 175.160156 L 354.804688 179.390625 C 345.628906 181.460938 338.96875 189.375 338.519531 198.734375 L 337.441406 220.777344 C 336.902344 231.394531 338.519531 242.101562 342.027344 252.085938 L 352.015625 281.597656 L 413.46875 288.617188 L 415.894531 273.679688 L 418.144531 225.816406 L 433.351562 245.070312 C 437.851562 250.738281 445.855469 251.996094 451.886719 248.039062 L 487.964844 224.285156 L 480.40625 212.679688 L 446.667969 227.796875 L 424.355469 190.726562 C 420.753906 184.789062 414.816406 180.738281 407.980469 179.570312 L 389.625 176.511719 Z M 373.609375 175.160156 " fill-opacity="1" fill-rule="nonzero"/><path fill="#000000" d="M 415.894531 274.039062 C 415.894531 274.039062 415.804688 274.039062 415.804688 274.039062 L 377.027344 262.074219 C 373.609375 260.996094 371 258.386719 370.011719 254.96875 L 362.453125 229.144531 C 362.363281 228.964844 362.542969 228.785156 362.722656 228.695312 C 362.902344 228.605469 363.082031 228.785156 363.171875 228.964844 L 370.730469 254.785156 C 371.628906 257.9375 374.058594 260.457031 377.296875 261.445312 L 416.078125 273.410156 C 416.257812 273.5 416.347656 273.679688 416.257812 273.859375 C 416.167969 273.949219 416.078125 274.039062 415.894531 274.039062 Z M 415.894531 274.039062 " fill-opacity="1" fill-rule="nonzero"/><path fill="#ffad65" d="M 370.011719 139.800781 C 370.011719 139.800781 366.863281 136.921875 364.164062 139.800781 C 360.023438 144.210938 365.78125 153.207031 371.808594 149.339844 Z M 370.011719 139.800781 " fill-opacity="1" fill-rule="nonzero"/><path fill="#000000" d="M 370.191406 147.089844 C 370.101562 147.089844 369.921875 147 369.921875 146.910156 C 368.480469 143.402344 365.691406 143.222656 365.511719 143.222656 C 365.332031 143.222656 365.152344 143.039062 365.242188 142.859375 C 365.332031 142.679688 365.421875 142.5 365.601562 142.589844 C 365.78125 142.589844 368.929688 142.859375 370.550781 146.730469 C 370.640625 146.910156 370.550781 147.089844 370.371094 147.179688 C 370.28125 147 370.28125 147.089844 370.191406 147.089844 Z M 370.191406 147.089844 " fill-opacity="1" fill-rule="nonzero"/><path fill="#ffad65" d="M 402.851562 142.859375 C 402.851562 142.859375 406.359375 140.613281 408.519531 143.851562 C 411.757812 148.800781 404.648438 156.535156 399.519531 151.769531 Z M 402.851562 142.859375 " fill-opacity="1" fill-rule="nonzero"/><path fill="#000000" d="M 401.589844 149.699219 C 401.5 149.699219 401.5 149.699219 401.410156 149.609375 C 401.230469 149.519531 401.230469 149.339844 401.320312 149.160156 C 403.570312 145.648438 406.539062 145.921875 406.628906 145.921875 C 406.808594 145.921875 406.898438 146.101562 406.898438 146.28125 C 406.898438 146.460938 406.71875 146.640625 406.539062 146.550781 C 406.449219 146.550781 403.839844 146.28125 401.859375 149.519531 C 401.769531 149.699219 401.679688 149.699219 401.589844 149.699219 Z M 401.589844 149.699219 " fill-opacity="1" fill-rule="nonzero"/><path fill="#ffad65" d="M 407.617188 133.054688 C 407.617188 133.714844 407.585938 134.371094 407.523438 135.03125 C 407.457031 135.6875 407.359375 136.339844 407.230469 136.984375 C 407.101562 137.632812 406.941406 138.273438 406.75 138.90625 C 406.558594 139.535156 406.335938 140.15625 406.085938 140.765625 C 405.832031 141.375 405.550781 141.972656 405.238281 142.554688 C 404.929688 143.136719 404.589844 143.703125 404.222656 144.25 C 403.855469 144.800781 403.464844 145.328125 403.042969 145.839844 C 402.625 146.351562 402.183594 146.839844 401.714844 147.304688 C 401.25 147.773438 400.761719 148.214844 400.25 148.632812 C 399.742188 149.050781 399.210938 149.445312 398.660156 149.8125 C 398.113281 150.179688 397.546875 150.515625 396.964844 150.828125 C 396.382812 151.140625 395.789062 151.421875 395.175781 151.671875 C 394.566406 151.925781 393.945312 152.148438 393.316406 152.339844 C 392.683594 152.53125 392.042969 152.691406 391.398438 152.820312 C 390.75 152.949219 390.097656 153.046875 389.441406 153.109375 C 388.785156 153.175781 388.125 153.207031 387.464844 153.207031 C 386.804688 153.207031 386.148438 153.175781 385.488281 153.109375 C 384.832031 153.046875 384.179688 152.949219 383.535156 152.820312 C 382.886719 152.691406 382.246094 152.53125 381.613281 152.339844 C 380.984375 152.148438 380.363281 151.925781 379.753906 151.671875 C 379.144531 151.421875 378.546875 151.140625 377.964844 150.828125 C 377.382812 150.515625 376.816406 150.179688 376.269531 149.8125 C 375.71875 149.445312 375.191406 149.050781 374.679688 148.632812 C 374.167969 148.214844 373.679688 147.773438 373.214844 147.304688 C 372.746094 146.839844 372.304688 146.351562 371.886719 145.839844 C 371.46875 145.328125 371.074219 144.800781 370.707031 144.25 C 370.339844 143.703125 370.003906 143.136719 369.691406 142.554688 C 369.378906 141.972656 369.097656 141.375 368.84375 140.765625 C 368.59375 140.15625 368.371094 139.535156 368.179688 138.90625 C 367.988281 138.273438 367.828125 137.632812 367.699219 136.984375 C 367.570312 136.339844 367.472656 135.6875 367.410156 135.03125 C 367.34375 134.371094 367.3125 133.714844 367.3125 133.054688 C 367.3125 132.394531 367.34375 131.734375 367.410156 131.078125 C 367.472656 130.421875 367.570312 129.769531 367.699219 129.121094 C 367.828125 128.476562 367.988281 127.835938 368.179688 127.203125 C 368.371094 126.570312 368.59375 125.953125 368.84375 125.339844 C 369.097656 124.730469 369.378906 124.136719 369.691406 123.554688 C 370.003906 122.972656 370.339844 122.40625 370.707031 121.855469 C 371.074219 121.308594 371.46875 120.777344 371.886719 120.269531 C 372.304688 119.757812 372.746094 119.269531 373.214844 118.804688 C 373.679688 118.335938 374.167969 117.894531 374.679688 117.476562 C 375.191406 117.054688 375.71875 116.664062 376.269531 116.296875 C 376.816406 115.929688 377.382812 115.589844 377.964844 115.28125 C 378.546875 114.96875 379.144531 114.6875 379.753906 114.433594 C 380.363281 114.183594 380.984375 113.960938 381.613281 113.769531 C 382.246094 113.578125 382.886719 113.417969 383.535156 113.289062 C 384.179688 113.160156 384.832031 113.0625 385.488281 112.996094 C 386.148438 112.933594 386.804688 112.898438 387.464844 112.898438 C 388.125 112.898438 388.785156 112.933594 389.441406 112.996094 C 390.097656 113.0625 390.75 113.160156 391.398438 113.289062 C 392.042969 113.417969 392.683594 113.578125 393.316406 113.769531 C 393.945312 113.960938 394.566406 114.183594 395.175781 114.433594 C 395.789062 114.6875 396.382812 114.96875 396.964844 115.28125 C 397.546875 115.589844 398.113281 115.929688 398.660156 116.296875 C 399.210938 116.664062 399.742188 117.054688 400.25 117.476562 C 400.761719 117.894531 401.25 118.335938 401.714844 118.804688 C 402.183594 119.269531 402.625 119.757812 403.042969 120.269531 C 403.464844 120.777344 403.855469 121.308594 404.222656 121.855469 C 404.589844 122.40625 404.929688 122.972656 405.238281 123.554688 C 405.550781 124.136719 405.832031 124.730469 406.085938 125.339844 C 406.335938 125.953125 406.558594 126.570312 406.75 127.203125 C 406.941406 127.835938 407.101562 128.476562 407.230469 129.121094 C 407.359375 129.769531 407.457031 130.421875 407.523438 131.078125 C 407.585938 131.734375 407.617188 132.394531 407.617188 133.054688 Z M 407.617188 133.054688 " fill-opacity="1" fill-rule="nonzero"/><path fill="#000000" d="M 407.617188 133.054688 C 407.617188 133.714844 407.585938 134.371094 407.523438 135.03125 C 407.457031 135.6875 407.359375 136.339844 407.230469 136.984375 C 407.101562 137.632812 406.941406 138.273438 406.75 138.90625 C 406.558594 139.535156 406.335938 140.15625 406.085938 140.765625 C 405.832031 141.375 405.550781 141.972656 405.238281 142.554688 C 404.929688 143.136719 404.589844 143.703125 404.222656 144.25 C 403.855469 144.800781 403.464844 145.328125 403.042969 145.839844 C 402.625 146.351562 402.183594 146.839844 401.714844 147.304688 C 401.25 147.773438 400.761719 148.214844 400.25 148.632812 C 399.742188 149.050781 399.210938 149.445312 398.660156 149.8125 C 398.113281 150.179688 397.546875 150.515625 396.964844 150.828125 C 396.382812 151.140625 395.789062 151.421875 395.175781 151.671875 C 394.566406 151.925781 393.945312 152.148438 393.316406 152.339844 C 392.683594 152.53125 392.042969 152.691406 391.398438 152.820312 C 390.75 152.949219 390.097656 153.046875 389.441406 153.109375 C 388.785156 153.175781 388.125 153.207031 387.464844 153.207031 C 386.804688 153.207031 386.148438 153.175781 385.488281 153.109375 C 384.832031 153.046875 384.179688 152.949219 383.535156 152.820312 C 382.886719 152.691406 382.246094 152.53125 381.613281 152.339844 C 380.984375 152.148438 380.363281 151.925781 379.753906 151.671875 C 379.144531 151.421875 378.546875 151.140625 377.964844 150.828125 C 377.382812 150.515625 376.816406 150.179688 376.269531 149.8125 C 375.71875 149.445312 375.191406 149.050781 374.679688 148.632812 C 374.167969 148.214844 373.679688 147.773438 373.214844 147.304688 C 372.746094 146.839844 372.304688 146.351562 371.886719 145.839844 C 371.46875 145.328125 371.074219 144.800781 370.707031 144.25 C 370.339844 143.703125 370.003906 143.136719 369.691406 142.554688 C 369.378906 141.972656 369.097656 141.375 368.84375 140.765625 C 368.59375 140.15625 368.371094 139.535156 368.179688 138.90625 C 367.988281 138.273438 367.828125 137.632812 367.699219 136.984375 C 367.570312 136.339844 367.472656 135.6875 367.410156 135.03125 C 367.34375 134.371094 367.3125 133.714844 367.3125 133.054688 C 367.3125 132.394531 367.34375 131.734375 367.410156 131.078125 C 367.472656 130.421875 367.570312 129.769531 367.699219 129.121094 C 367.828125 128.476562 367.988281 127.835938 368.179688 127.203125 C 368.371094 126.570312 368.59375 125.953125 368.84375 125.339844 C 369.097656 124.730469 369.378906 124.136719 369.691406 123.554688 C 370.003906 122.972656 370.339844 122.40625 370.707031 121.855469 C 371.074219 121.308594 371.46875 120.777344 371.886719 120.269531 C 372.304688 119.757812 372.746094 119.269531 373.214844 118.804688 C 373.679688 118.335938 374.167969 117.894531 374.679688 117.476562 C 375.191406 117.054688 375.71875 116.664062 376.269531 116.296875 C 376.816406 115.929688 377.382812 115.589844 377.964844 115.28125 C 378.546875 114.96875 379.144531 114.6875 379.753906 114.433594 C 380.363281 114.183594 380.984375 113.960938 381.613281 113.769531 C 382.246094 113.578125 382.886719 113.417969 383.535156 113.289062 C 384.179688 113.160156 384.832031 113.0625 385.488281 112.996094 C 386.148438 112.933594 386.804688 112.898438 387.464844 112.898438 C 388.125 112.898438 388.785156 112.933594 389.441406 112.996094 C 390.097656 113.0625 390.75 113.160156 391.398438 113.289062 C 392.042969 113.417969 392.683594 113.578125 393.316406 113.769531 C 393.945312 113.960938 394.566406 114.183594 395.175781 114.433594 C 395.789062 114.6875 396.382812 114.96875 396.964844 115.28125 C 397.546875 115.589844 398.113281 115.929688 398.660156 116.296875 C 399.210938 116.664062 399.742188 117.054688 400.25 117.476562 C 400.761719 117.894531 401.25 118.335938 401.714844 118.804688 C 402.183594 119.269531 402.625 119.757812 403.042969 120.269531 C 403.464844 120.777344 403.855469 121.308594 404.222656 121.855469 C 404.589844 122.40625 404.929688 122.972656 405.238281 123.554688 C 405.550781 124.136719 405.832031 124.730469 406.085938 125.339844 C 406.335938 125.953125 406.558594 126.570312 406.75 127.203125 C 406.941406 127.835938 407.101562 128.476562 407.230469 129.121094 C 407.359375 129.769531 407.457031 130.421875 407.523438 131.078125 C 407.585938 131.734375 407.617188 132.394531 407.617188 133.054688 Z M 407.617188 133.054688 " fill-opacity="1" fill-rule="nonzero"/><path fill="#ffad65" d="M 376.757812 155.726562 L 373.96875 175.160156 L 383.054688 182.628906 L 389.984375 176.601562 L 389.894531 156.355469 Z M 376.757812 155.726562 " fill-opacity="1" fill-rule="nonzero"/><path fill="#000000" d="M 376.398438 158.425781 C 376.847656 158.695312 389.984375 168.863281 389.984375 168.863281 L 389.984375 158.605469 Z M 376.398438 158.425781 " fill-opacity="1" fill-rule="nonzero"/><path fill="#ffad65" d="M 371.269531 130.894531 C 371.269531 130.894531 366.230469 160.136719 384.496094 162.113281 C 404.109375 164.183594 404.199219 133.773438 404.199219 133.773438 C 404.199219 133.773438 405.371094 118.296875 388.90625 116.859375 C 373.789062 115.597656 371.269531 130.894531 371.269531 130.894531 Z M 371.269531 130.894531 " fill-opacity="1" fill-rule="nonzero"/><path fill="#000000" d="M 371.71875 121.988281 C 371.71875 121.988281 385.574219 119.378906 403.03125 124.6875 C 403.03125 124.6875 402.128906 115.6875 388.09375 114.519531 C 374.148438 113.261719 371.71875 121.988281 371.71875 121.988281 Z M 371.71875 121.988281 " fill-opacity="1" fill-rule="nonzero"/><path fill="#000000" d="M 386.027344 139.710938 C 385.9375 140.523438 385.214844 140.972656 384.40625 140.882812 C 383.597656 140.792969 383.144531 140.070312 383.238281 139.261719 C 383.328125 138.453125 384.046875 138.003906 384.855469 138.09375 C 385.664062 138.183594 386.207031 138.902344 386.027344 139.710938 Z M 386.027344 139.710938 " fill-opacity="1" fill-rule="nonzero"/><path fill="#000000" d="M 400.152344 142.230469 C 400.0625 143.042969 399.339844 143.492188 398.53125 143.402344 C 397.722656 143.3125 397.273438 142.589844 397.363281 141.78125 C 397.453125 140.972656 398.171875 140.523438 398.980469 140.613281 C 399.792969 140.792969 400.332031 141.511719 400.152344 142.230469 Z M 400.152344 142.230469 " fill-opacity="1" fill-rule="nonzero"/><path fill="#000000" d="M 389.804688 145.46875 C 389.625 145.46875 389.535156 145.289062 389.535156 145.109375 C 389.535156 144.929688 389.714844 144.75 389.894531 144.75 L 390.972656 144.75 C 391.152344 144.75 391.332031 144.570312 391.425781 144.390625 L 390.703125 141.960938 C 390.613281 141.78125 390.792969 141.601562 390.972656 141.511719 C 391.152344 141.421875 391.332031 141.601562 391.425781 141.78125 L 392.144531 144.300781 C 392.144531 144.300781 392.144531 144.390625 392.144531 144.390625 C 392.144531 145.019531 391.695312 145.46875 391.0625 145.46875 Z M 389.804688 145.46875 " fill-opacity="1" fill-rule="nonzero"/><path fill="#000000" d="M 395.5625 134.222656 C 395.5625 134.222656 394.84375 135.753906 397.273438 136.113281 C 399.160156 136.472656 401.320312 137.28125 402.3125 137.644531 C 402.851562 137.914062 403.570312 137.734375 403.929688 137.371094 C 404.199219 137.011719 404.199219 136.652344 403.929688 136.292969 C 403.390625 135.574219 401.140625 133.773438 398.890625 133.414062 C 396.191406 132.875 395.5625 134.222656 395.5625 134.222656 Z M 395.5625 134.222656 " fill-opacity="1" fill-rule="nonzero"/><path fill="#000000" d="M 388.183594 133.054688 C 388.183594 133.054688 388.363281 134.671875 385.9375 134.3125 C 384.046875 134.042969 381.707031 134.132812 380.628906 134.222656 C 379.996094 134.222656 379.367188 133.953125 379.1875 133.414062 C 379.007812 133.054688 379.097656 132.605469 379.546875 132.335938 C 380.265625 131.792969 382.964844 130.804688 385.214844 131.164062 C 388.003906 131.613281 388.183594 133.054688 388.183594 133.054688 Z M 388.183594 133.054688 " fill-opacity="1" fill-rule="nonzero"/><path fill="#000000" d="M 386.296875 147.71875 L 393.132812 148.800781 C 394.214844 148.980469 395.203125 149.699219 395.652344 150.6875 L 395.832031 151.046875 C 396.011719 151.5 395.652344 152.039062 395.113281 151.949219 L 383.417969 150.058594 C 382.964844 149.96875 382.695312 149.429688 382.964844 149.070312 C 383.777344 148.078125 385.035156 147.539062 386.296875 147.71875 Z M 386.296875 147.71875 " fill-opacity="1" fill-rule="nonzero"/><path fill="#ffad65" d="M 374.417969 122.527344 C 374.417969 122.527344 375.589844 126.484375 371 131.34375 L 370.011719 127.746094 L 374.417969 119.648438 " fill-opacity="1" fill-rule="nonzero"/><path fill="#ffad65" d="M 402.21875 124.867188 C 402.21875 124.867188 400.421875 128.554688 404.109375 134.132812 L 405.640625 130.714844 L 402.761719 122.078125 " fill-opacity="1" fill-rule="nonzero"/><g clip-path="url(#cee043af6f)"><path fill="#ffad65" d="M 374.597656 122.976562 C 374.597656 122.976562 384.945312 121.71875 392.054688 127.027344 C 400.152344 133.144531 407.527344 127.835938 406.988281 120.90625 C 406.359375 113.710938 396.820312 111.28125 387.464844 111.820312 C 379.90625 112.269531 375.230469 115.597656 375.230469 115.597656 Z M 374.597656 122.976562 " fill-opacity="1" fill-rule="nonzero"/></g><path fill="#ffad65" d="M 377.566406 115.507812 C 377.566406 115.507812 362.09375 115.058594 367.402344 135.84375 Z M 377.566406 115.507812 " fill-opacity="1" fill-rule="nonzero"/><path fill="#000000" d="M 374.417969 122.527344 C 374.417969 122.527344 375.589844 126.484375 371 131.34375 L 370.011719 127.746094 L 374.417969 119.648438 " fill-opacity="1" fill-rule="nonzero"/><path fill="#000000" d="M 402.21875 124.867188 C 402.21875 124.867188 400.421875 128.554688 404.109375 134.132812 L 405.640625 130.714844 L 402.761719 122.078125 " fill-opacity="1" fill-rule="nonzero"/><g clip-path="url(#dc30246bd8)"><path fill="#000000" d="M 374.597656 122.976562 C 374.597656 122.976562 384.945312 121.71875 392.054688 127.027344 C 400.152344 133.144531 407.527344 127.835938 406.988281 120.90625 C 406.359375 113.710938 396.820312 111.28125 387.464844 111.820312 C 379.90625 112.269531 375.230469 115.597656 375.230469 115.597656 Z M 374.597656 122.976562 " fill-opacity="1" fill-rule="nonzero"/></g><path fill="#000000" d="M 377.566406 115.507812 C 377.566406 115.507812 362.09375 115.058594 367.402344 135.84375 Z M 377.566406 115.507812 " fill-opacity="1" fill-rule="nonzero"/><path fill="#ffffff" d="M 362.8125 177.589844 L 392.054688 225.90625 L 401.589844 178.582031 L 389.984375 175.972656 L 383.054688 182.628906 L 374.058594 174.890625 Z M 362.8125 177.589844 " fill-opacity="1" fill-rule="nonzero"/><path fill="#000000" d="M 396.28125 268.011719 C 396.101562 268.011719 396.011719 267.921875 395.921875 267.742188 L 391.695312 225.996094 C 391.695312 225.816406 391.785156 225.636719 391.964844 225.636719 C 392.144531 225.636719 392.324219 225.726562 392.324219 225.90625 L 396.550781 267.652344 C 396.640625 267.832031 396.460938 268.011719 396.28125 268.011719 Z M 396.28125 268.011719 " fill-opacity="1" fill-rule="nonzero"/><path fill="#ffad65" d="M 602.769531 207.910156 L 603.21875 228.246094 L 618.515625 226.894531 L 614.734375 193.785156 Z M 602.769531 207.910156 " fill-opacity="1" fill-rule="nonzero"/><path fill="#000000" d="M 603.039062 219.789062 L 613.925781 205.300781 L 602.859375 208.992188 Z M 603.039062 219.789062 " fill-opacity="1" fill-rule="nonzero"/><path fill="#ffad65" d="M 598.089844 172.550781 C 592.78125 172.820312 589.8125 178.128906 588.824219 182.988281 C 587.742188 188.65625 586.394531 197.472656 587.832031 201.972656 C 589.992188 208.902344 595.480469 213.398438 604.480469 211.78125 C 604.480469 211.78125 614.914062 211.421875 617.792969 196.035156 C 621.214844 177.679688 609.335938 172.011719 598.089844 172.550781 Z M 598.089844 172.550781 " fill-opacity="1" fill-rule="nonzero"/><path fill="#000000" d="M 591.253906 190.636719 C 591.074219 191.265625 590.441406 191.625 589.8125 191.445312 C 589.183594 191.265625 588.824219 190.636719 589.003906 190.007812 C 589.183594 189.375 589.8125 189.015625 590.441406 189.195312 C 591.074219 189.285156 591.433594 190.007812 591.253906 190.636719 Z M 591.253906 190.636719 " fill-opacity="1" fill-rule="nonzero"/><path fill="#000000" d="M 601.238281 191.445312 C 601.058594 192.074219 600.429688 192.4375 599.800781 192.257812 C 599.171875 192.074219 598.808594 191.445312 598.992188 190.816406 C 599.171875 190.1875 599.800781 189.828125 600.429688 190.007812 C 601.058594 190.1875 601.417969 190.816406 601.238281 191.445312 Z M 601.238281 191.445312 " fill-opacity="1" fill-rule="nonzero"/><path fill="#000000" d="M 593.773438 196.933594 L 592.511719 196.574219 C 592.242188 196.484375 592.0625 196.304688 591.882812 196.125 C 591.792969 195.855469 591.703125 195.585938 591.792969 195.40625 L 592.960938 192.074219 C 593.050781 191.894531 593.230469 191.804688 593.320312 191.894531 C 593.503906 191.984375 593.59375 192.164062 593.503906 192.257812 L 592.332031 195.585938 C 592.332031 195.675781 592.332031 195.765625 592.332031 195.855469 C 592.332031 195.945312 592.421875 196.035156 592.511719 196.035156 L 593.773438 196.394531 C 593.953125 196.484375 594.042969 196.574219 593.953125 196.753906 C 594.132812 196.84375 593.953125 196.933594 593.773438 196.933594 Z M 593.773438 196.933594 " fill-opacity="1" fill-rule="nonzero"/><path fill="#000000" d="M 591.34375 198.554688 L 600.519531 199.8125 C 600.519531 199.8125 599.800781 203.773438 595.570312 203.234375 C 591.34375 202.691406 591.34375 198.554688 591.34375 198.554688 Z M 591.34375 198.554688 " fill-opacity="1" fill-rule="nonzero"/><g clip-path="url(#89bc65a292)"><g clip-path="url(#0ad8f0b3d0)"><path fill="#ffffff" d="M 590.53125 199.722656 L 600.96875 200.984375 L 601.148438 199.273438 L 590.804688 197.5625 Z M 590.53125 199.722656 " fill-opacity="1" fill-rule="nonzero"/></g></g><path fill="#000000" d="M 593.050781 182.179688 C 593.050781 182.179688 593.414062 183.617188 591.613281 183.707031 C 590.261719 183.796875 589.453125 183.886719 588.644531 184.070312 C 588.195312 184.25 587.742188 183.976562 587.472656 183.617188 C 587.292969 183.257812 587.292969 182.898438 587.5625 182.628906 C 588.015625 182 589.003906 181.1875 590.625 181.007812 C 592.78125 180.828125 593.050781 182.179688 593.050781 182.179688 Z M 593.050781 182.179688 " fill-opacity="1" fill-rule="nonzero"/><path fill="#000000" d="M 599.171875 182.71875 C 599.171875 182.71875 598.539062 184.070312 600.699219 184.519531 C 602.410156 184.878906 604.390625 185.6875 605.289062 186.046875 C 605.828125 186.226562 606.457031 186.136719 606.816406 185.777344 C 607.089844 185.507812 607.089844 185.058594 606.90625 184.789062 C 606.367188 184.160156 604.390625 182.449219 602.320312 182 C 599.710938 181.550781 599.171875 182.71875 599.171875 182.71875 Z M 599.171875 182.71875 " fill-opacity="1" fill-rule="nonzero"/><path fill="#000000" d="M 613.207031 198.375 L 611.945312 186.859375 C 611.675781 184.160156 612.667969 182.089844 613.566406 178.941406 C 603.578125 178.039062 591.882812 176.871094 591.972656 175.972656 C 591.972656 175.972656 596.921875 166.792969 614.015625 169.671875 C 637.320312 173.632812 626.34375 201.703125 615.726562 206.472656 Z M 613.207031 198.375 " fill-opacity="1" fill-rule="nonzero"/><path fill="#ffad65" d="M 624.273438 199.09375 C 623.191406 202.421875 619.683594 204.222656 616.355469 203.144531 C 613.027344 202.0625 611.226562 198.554688 612.304688 195.226562 C 613.386719 191.894531 616.894531 190.097656 620.222656 191.175781 C 623.464844 192.257812 625.351562 195.765625 624.273438 199.09375 Z M 624.273438 199.09375 " fill-opacity="1" fill-rule="nonzero"/><path fill="#000000" d="M 615.1875 199.363281 C 615.003906 199.273438 614.914062 199.183594 614.914062 199.003906 C 615.367188 197.382812 616.175781 196.214844 617.34375 195.496094 C 619.144531 194.503906 621.125 195.046875 621.214844 195.136719 C 621.394531 195.226562 621.484375 195.316406 621.394531 195.496094 C 621.304688 195.675781 621.214844 195.765625 621.035156 195.675781 C 621.035156 195.675781 619.234375 195.136719 617.613281 196.035156 C 616.625 196.574219 615.90625 197.65625 615.546875 199.09375 C 615.546875 199.273438 615.367188 199.363281 615.1875 199.363281 Z M 615.1875 199.363281 " fill-opacity="1" fill-rule="nonzero"/><path fill="#ffad65" d="M 653.875 293.925781 C 653.875 294.734375 653.875 295.542969 653.875 296.265625 C 653.605469 308.769531 652.253906 321.097656 651.355469 333.511719 C 650.363281 340.710938 647.574219 342.960938 645.417969 343.589844 C 645.328125 343.769531 645.144531 344.039062 645.054688 344.21875 L 640.289062 351.507812 C 639.929688 352.226562 639.027344 352.585938 638.21875 352.226562 C 637.679688 351.957031 636.957031 351.328125 637.679688 349.707031 L 637.050781 351.417969 C 636.6875 352.226562 635.699219 352.585938 634.890625 352.136719 C 634.167969 351.777344 633.808594 350.789062 634.167969 349.707031 L 633.539062 350.878906 C 633.089844 351.777344 632.011719 352.046875 631.109375 351.597656 C 630.300781 351.148438 630.121094 350.15625 630.390625 349.347656 L 631.109375 347.636719 L 631.199219 347.457031 L 629.941406 349.257812 C 629.402344 350.15625 628.230469 350.425781 627.332031 349.796875 C 626.523438 349.257812 626.253906 348.269531 626.613281 347.367188 L 630.839844 336.839844 L 628.589844 335.761719 C 627.78125 335.402344 627.332031 334.503906 627.421875 333.601562 C 627.601562 332.703125 628.320312 331.984375 629.222656 331.984375 L 641.90625 331.714844 C 638.667969 305.890625 635.96875 280.070312 633.628906 254.15625 C 633.539062 248.21875 638.488281 243.359375 644.246094 243.359375 C 644.425781 243.359375 644.605469 243.359375 644.875 243.359375 C 650.273438 243.71875 650.363281 249.839844 651.445312 255.148438 C 653.875 267.5625 653.964844 280.519531 653.875 293.925781 Z M 653.875 293.925781 " fill-opacity="1" fill-rule="nonzero"/><path fill="#000000" d="M 630.75 348.179688 C 630.570312 348.089844 630.570312 348 630.570312 347.910156 L 633.179688 341.878906 C 633.179688 341.789062 633.359375 341.699219 633.449219 341.789062 C 633.539062 341.789062 633.628906 341.96875 633.539062 342.058594 L 630.929688 348.089844 C 630.929688 348.179688 630.839844 348.179688 630.75 348.179688 Z M 630.75 348.179688 " fill-opacity="1" fill-rule="nonzero"/><path fill="#000000" d="M 634.078125 349.617188 C 633.898438 349.527344 633.898438 349.4375 633.898438 349.347656 L 636.6875 343.769531 C 636.777344 343.679688 636.867188 343.589844 636.957031 343.679688 C 637.050781 343.769531 637.140625 343.859375 637.050781 343.949219 L 634.257812 349.527344 C 634.257812 349.617188 634.167969 349.617188 634.078125 349.617188 Z M 634.078125 349.617188 " fill-opacity="1" fill-rule="nonzero"/><path fill="#000000" d="M 637.320312 350.425781 C 637.320312 350.425781 637.230469 350.425781 637.230469 350.425781 C 637.140625 350.335938 637.140625 350.246094 637.140625 350.15625 L 639.566406 345.480469 C 639.65625 345.390625 639.75 345.390625 639.839844 345.390625 C 639.929688 345.390625 639.929688 345.570312 639.929688 345.660156 L 637.5 350.335938 C 637.410156 350.425781 637.410156 350.425781 637.320312 350.425781 Z M 637.320312 350.425781 " fill-opacity="1" fill-rule="nonzero"/><path fill="#0d4fb1" d="M 639.117188 230.496094 C 639.117188 230.496094 653.964844 238.5 656.394531 269.363281 L 634.621094 276.289062 L 626.792969 251.636719 Z M 639.117188 230.496094 " fill-opacity="1" fill-rule="nonzero"/><path fill="#000000" d="M 553.015625 370.132812 C 552.835938 370.132812 552.65625 369.953125 552.65625 369.773438 C 552.65625 369.59375 552.835938 351.328125 552.65625 338.011719 C 552.476562 324.605469 556.972656 318.847656 557.152344 318.667969 C 557.242188 318.488281 557.511719 318.488281 557.601562 318.578125 C 557.78125 318.667969 557.78125 318.9375 557.691406 319.027344 C 557.601562 319.117188 553.195312 324.785156 553.375 338.011719 C 553.554688 351.328125 553.375 369.59375 553.375 369.773438 C 553.375 369.953125 553.195312 370.132812 553.015625 370.132812 Z M 553.015625 370.132812 " fill-opacity="1" fill-rule="nonzero"/><path fill="#000000" d="M 576.585938 401.621094 C 576.316406 401.621094 576.226562 401.441406 576.226562 401.261719 L 579.644531 374.988281 C 579.644531 374.808594 579.828125 374.71875 580.007812 374.71875 C 580.1875 374.71875 580.277344 374.898438 580.277344 375.082031 L 576.855469 401.351562 C 576.945312 401.53125 576.765625 401.621094 576.585938 401.621094 Z M 576.585938 401.621094 " fill-opacity="1" fill-rule="nonzero"/><path fill="#000000" d="M 635.160156 276.46875 C 634.980469 276.46875 634.890625 276.378906 634.800781 276.199219 L 631.921875 251.097656 C 631.921875 250.917969 632.011719 250.738281 632.191406 250.738281 C 632.371094 250.738281 632.550781 250.828125 632.550781 251.007812 L 635.429688 276.109375 C 635.519531 276.289062 635.429688 276.378906 635.160156 276.46875 C 635.25 276.46875 635.160156 276.46875 635.160156 276.46875 Z M 635.160156 276.46875 " fill-opacity="1" fill-rule="nonzero"/><g mask="url(#007e1a895b)"><g transform="matrix(1, 0, 0, 1, 376, 131)"><g clip-path="url(#bc47dbf2ff)"><g clip-path="url(#f588a205cb)"><path fill="#ffffff" d="M 7.238281 1.246094 L 12.273438 12.039062 C 12.273438 12.039062 9.394531 15.640625 6.15625 14.46875 L 1.027344 3.855469 C 0.9375 3.945312 3.636719 0.253906 7.238281 1.246094 Z M 7.238281 1.246094 " fill-opacity="1" fill-rule="nonzero"/></g></g></g></g><g mask="url(#c6e40d0002)"><g transform="matrix(1, 0, 0, 1, 392, 134)"><g clip-path="url(#69bd0e244a)"><g clip-path="url(#23e91549b6)"><path fill="#ffffff" d="M 7.160156 1.484375 L 12.199219 12.28125 C 12.199219 12.28125 9.320312 15.878906 6.082031 14.710938 L 0.863281 4.183594 C 0.863281 4.183594 3.5625 0.492188 7.160156 1.484375 Z M 7.160156 1.484375 " fill-opacity="1" fill-rule="nonzero"/></g></g></g></g><path fill="#ffffff" d="M 381.796875 146.101562 C 381.527344 146.101562 381.347656 146.011719 381.078125 146.011719 C 377.207031 145.199219 374.6875 141.421875 375.5 137.550781 C 375.859375 135.664062 376.9375 134.042969 378.558594 133.054688 C 380.175781 131.972656 382.066406 131.613281 383.957031 131.972656 C 385.84375 132.335938 387.464844 133.414062 388.453125 135.035156 C 389.535156 136.652344 389.894531 138.542969 389.535156 140.433594 C 389.175781 142.320312 388.09375 143.941406 386.476562 144.929688 C 385.125 145.832031 383.507812 146.191406 381.796875 146.101562 Z M 383.238281 132.335938 C 381.707031 132.15625 380.175781 132.515625 378.828125 133.414062 C 377.386719 134.402344 376.308594 135.933594 375.949219 137.644531 C 375.230469 141.242188 377.566406 144.75 381.167969 145.46875 C 382.875 145.832031 384.675781 145.46875 386.207031 144.480469 C 387.644531 143.492188 388.726562 141.960938 389.085938 140.25 C 389.445312 138.542969 389.085938 136.742188 388.09375 135.214844 C 387.105469 133.773438 385.574219 132.695312 383.867188 132.335938 C 383.6875 132.425781 383.507812 132.335938 383.238281 132.335938 Z M 383.238281 132.335938 " fill-opacity="1" fill-rule="nonzero"/><path fill="#ffffff" d="M 397.722656 149.339844 C 397.542969 149.339844 397.273438 149.25 397.09375 149.25 C 393.222656 148.4375 390.703125 144.660156 391.515625 140.792969 C 391.875 138.902344 392.953125 137.28125 394.574219 136.292969 C 396.191406 135.214844 398.082031 134.855469 399.972656 135.214844 C 401.859375 135.574219 403.480469 136.652344 404.46875 138.273438 C 405.460938 139.890625 405.910156 141.78125 405.550781 143.671875 C 404.738281 147.269531 401.410156 149.699219 397.722656 149.339844 Z M 399.25 135.574219 C 397.722656 135.394531 396.191406 135.753906 394.84375 136.652344 C 393.402344 137.644531 392.324219 139.171875 391.964844 140.882812 C 391.242188 144.480469 393.582031 147.988281 397.183594 148.710938 C 400.78125 149.429688 404.289062 147.089844 405.007812 143.492188 C 405.371094 141.78125 405.007812 139.980469 404.019531 138.453125 C 403.03125 137.011719 401.5 135.933594 399.792969 135.574219 C 399.613281 135.664062 399.429688 135.574219 399.25 135.574219 Z M 399.25 135.574219 " fill-opacity="1" fill-rule="nonzero"/><path fill="#ffffff" d="M 391.605469 140.972656 C 390.613281 140.160156 389.445312 140.523438 389.445312 140.523438 L 389.265625 140.070312 C 389.355469 140.070312 390.703125 139.621094 391.875 140.613281 Z M 391.605469 140.972656 " fill-opacity="1" fill-rule="nonzero"/><path fill="#ffffff" d="M 531.0625 437.699219 L 538.347656 436.351562 L 545.007812 437.339844 L 540.957031 438.78125 L 533.492188 438.78125 Z M 531.0625 437.699219 " fill-opacity="1" fill-rule="nonzero"/><path fill="#000000" d="M 390.253906 153.207031 C 390.164062 152.9375 389.984375 152.847656 389.714844 152.9375 C 389.085938 153.027344 388.453125 153.027344 387.914062 152.847656 C 387.464844 152.667969 387.015625 152.398438 386.835938 152.039062 C 386.566406 151.589844 385.753906 152.039062 386.027344 152.488281 C 386.386719 153.117188 386.925781 153.476562 387.644531 153.746094 C 388.363281 154.019531 389.175781 153.925781 389.984375 153.835938 C 390.164062 153.65625 390.34375 153.386719 390.253906 153.207031 Z M 390.253906 153.207031 " fill-opacity="1" fill-rule="nonzero"/><path fill="#ffffff" d="M 367.851562 138.992188 C 367.582031 138.992188 367.402344 138.8125 367.402344 138.542969 C 367.402344 138.273438 367.582031 138.09375 367.851562 138.09375 L 375.679688 137.644531 C 375.949219 137.644531 376.128906 137.824219 376.128906 138.09375 C 376.128906 138.363281 375.949219 138.542969 375.679688 138.542969 Z M 367.851562 138.992188 " fill-opacity="1" fill-rule="nonzero"/></svg>